<?xml version="1.0" encoding="UTF-8"?>
<svg version="1.1" xmlns="http://www.w3.org/2000/svg" width="369" height="163">
<path d="M0 0 C1.23737915 -0.0319043 1.23737915 -0.0319043 2.49975586 -0.06445312 C7.2561706 -0.0916077 10.28849282 0.21658774 14.1875 3.25 C14.6825 3.745 14.6825 3.745 15.1875 4.25 C16.81947269 4.55757344 18.4612237 4.81364875 20.10546875 5.046875 C21.11287109 5.2015625 22.12027344 5.35625 23.15820312 5.515625 C25.28137177 5.83532495 27.40640935 6.14287922 29.53320312 6.4375 C35.85288356 7.43386411 39.88657759 8.36885197 44.1875 13.25 C45.19767503 16.05985578 45.08457344 18.21366641 45.1875 21.25 C46.3321875 21.3428125 46.3321875 21.3428125 47.5 21.4375 C53.41975759 22.74185337 60.01164373 24.67052007 64.01953125 29.421875 C67.93123259 38.89368695 62.69542913 49.22145514 60.1875 58.25 C16.9575 58.25 -26.2725 58.25 -70.8125 58.25 C-80.8125 36.25 -80.8125 36.25 -80.8125 26.25 C-78.38777034 21.90033559 -75.4197089 20.2113722 -70.96484375 18.1640625 C-69.81097168 17.62869873 -68.65709961 17.09333496 -67.46826172 16.54174805 C-66.22935868 15.98501227 -64.98992689 15.42945179 -63.75 14.875 C-62.48189301 14.29932441 -61.21382686 13.72355885 -59.94580078 13.14770508 C-52.76438422 9.90894266 -45.54255571 6.7631453 -38.1875 3.9375 C-37.47456787 3.65406738 -36.76163574 3.37063477 -36.02709961 3.07861328 C-31.30076963 1.35294158 -27.16139404 1.01593332 -22.13891602 1.2043457 C-19.8271431 1.24971264 -17.66456014 1.05367592 -15.375 0.75 C-10.2533809 0.19365799 -5.14725302 0.06624647 0 0 Z " fill="#7A3936" transform="translate(261.8125,11.75)"/>
<path d="M0 0 C1.2219104 0.00607269 1.2219104 0.00607269 2.46850586 0.01226807 C3.30438232 0.01035461 4.14025879 0.00844116 5.00146484 0.00646973 C6.77010397 0.00510771 8.53875309 0.0088053 10.30737305 0.01715088 C13.02016579 0.02785031 15.7322963 0.01725631 18.44506836 0.00445557 C20.16121566 0.00577716 21.87736255 0.00833955 23.59350586 0.01226807 C24.40811279 0.0082196 25.22271973 0.00417114 26.06201172 0 C31.80108658 0.04797379 31.80108658 0.04797379 34.03100586 2.27789307 C34.28100586 5.27789307 34.28100586 5.27789307 34.03100586 8.27789307 C33.37100586 8.93789307 32.71100586 9.59789307 32.03100586 10.27789307 C31.65831699 13.18977552 31.65831699 13.18977552 31.61694336 16.59820557 C31.57827148 17.8550415 31.53959961 19.11187744 31.49975586 20.40679932 C31.46881836 21.72551025 31.43788086 23.04422119 31.40600586 24.40289307 C31.36782557 25.74276225 31.3287738 27.0826069 31.28881836 28.42242432 C31.19428556 31.70743925 31.1087343 34.99244445 31.03100586 38.27789307 C29.96881836 38.49703369 28.90663086 38.71617432 27.81225586 38.94195557 C18.5731717 40.96280041 10.98293927 42.68586368 5.26147461 50.78179932 C1.39233047 57.0068626 -0.11331443 61.84169901 -0.46899414 69.15289307 C-0.68837916 73.6137218 -1.0686972 77.89698384 -1.96899414 82.27789307 C-1.62006248 84.55953331 -1.62006248 84.55953331 0.03100586 86.27789307 C2.3577244 86.96729115 4.6916818 87.63256229 7.03100586 88.27789307 C9.46850586 90.40289307 9.46850586 90.40289307 11.03100586 92.27789307 C10.03100586 95.27789307 10.03100586 95.27789307 8.03100586 96.46539307 C-1.03776992 98.92151984 -7.67263614 96.20848569 -15.96899414 92.27789307 C-16.59805664 93.29367432 -17.22711914 94.30945557 -17.87524414 95.35601807 C-18.7398119 96.74665275 -19.60439644 98.137277 -20.46899414 99.52789307 C-20.91807129 100.25427979 -21.36714844 100.9806665 -21.82983398 101.72906494 C-23.94342476 105.12694789 -26.07426384 108.48384757 -28.41430664 111.73101807 C-32.55695341 117.52181462 -35.07822255 121.06790842 -33.96899414 128.27789307 C-30.70445718 129.91016154 -27.10003898 129.43420057 -23.51196289 129.43902588 C-22.63706207 129.44399078 -21.76216125 129.44895569 -20.86074829 129.45407104 C-17.95932233 129.46870691 -15.05795099 129.47549606 -12.15649414 129.48101807 C-10.14632159 129.48676712 -8.13614906 129.49252488 -6.12597656 129.49829102 C-1.90925846 129.50880422 2.30744055 129.5146452 6.52416992 129.51812744 C11.93846925 129.5236213 17.35251825 129.54766699 22.76673889 129.5760994 C26.91874948 129.59468058 31.07069914 129.59992889 35.2227478 129.60146332 C37.21952691 129.60449922 39.2163047 129.61255905 41.21304321 129.6256485 C44.00021706 129.64261931 46.78677071 129.64085121 49.57397461 129.63433838 C50.82082535 129.64816055 50.82082535 129.64816055 52.09286499 129.66226196 C54.61710052 129.67926824 54.61710052 129.67926824 58.03100586 129.27789307 C60.14034208 126.11388873 60.35584722 124.96651094 59.70336914 121.31109619 C58.30752195 117.09010294 55.53754717 113.60987066 52.96850586 110.02789307 C51.84653928 108.4436406 50.73035732 106.85527074 49.62084961 105.26226807 C49.12447998 104.56843018 48.62811035 103.87459229 48.11669922 103.159729 C47.03100586 101.27789307 47.03100586 101.27789307 47.03100586 98.27789307 C50.20288086 97.82867432 50.20288086 97.82867432 54.03100586 98.27789307 C56.31286557 100.34022633 57.7383361 102.82467652 59.28100586 105.46539307 C59.70124023 106.13892822 60.12147461 106.81246338 60.55444336 107.50640869 C61.73923709 109.41586399 62.88618037 111.34431706 64.03100586 113.27789307 C64.6072168 114.1944165 65.18342773 115.11093994 65.77709961 116.05523682 C68.17492384 120.30558569 68.20390657 124.16364402 67.46850586 128.90289307 C65.78015662 132.86684346 63.75283724 135.19232619 60.03100586 137.27789307 C56.95003972 137.97869039 53.96597063 137.96246097 50.81616211 137.92486572 C49.90808807 137.93362732 49.00001404 137.94238892 48.06442261 137.95141602 C45.07362573 137.97335726 42.08431681 137.95887586 39.09350586 137.94195557 C37.00894895 137.94532521 34.92439395 137.95017907 32.83984375 137.95645142 C28.47531389 137.96381561 24.11129638 137.95313152 19.74682617 137.92974854 C14.15785439 137.9012614 8.57008315 137.91766775 2.9811554 137.94761086 C-1.32207248 137.96569584 -5.62501666 137.9599202 -9.92825317 137.94697189 C-11.98869978 137.94364122 -14.0491723 137.94771301 -16.10958862 137.95936966 C-18.99180119 137.97209789 -21.87208142 137.95267351 -24.75415039 137.92486572 C-25.60212189 137.93498688 -26.45009338 137.94510803 -27.32376099 137.95553589 C-33.24363497 137.84995179 -35.82458254 136.52605605 -39.96899414 132.27789307 C-42.65427424 128.73820567 -42.45202261 124.5493705 -41.96899414 120.27789307 C-40.46508789 116.78570557 -40.46508789 116.78570557 -38.40649414 113.40289307 C-38.04152832 112.7955835 -37.6765625 112.18827393 -37.30053711 111.56256104 C-34.67436276 107.24870192 -31.82673432 103.11083921 -28.87133789 99.01617432 C-26.50806073 95.61441396 -24.33291879 92.11360892 -22.15649414 88.59039307 C-18.26669049 82.29583337 -14.24489127 76.10699938 -10.10449219 69.97442627 C-7.19439883 65.65864492 -5.849729 63.37362299 -5.76367188 58.18560791 C-5.74372665 57.12465912 -5.72378143 56.06371033 -5.70323181 54.97061157 C-5.68651932 53.82162384 -5.66980682 52.67263611 -5.65258789 51.48883057 C-5.63180679 50.31527008 -5.6110257 49.14170959 -5.58961487 47.93258667 C-5.52407431 44.17275002 -5.46521338 40.41284184 -5.40649414 36.65289307 C-5.36331322 34.10861475 -5.31969907 31.56434374 -5.27563477 29.02008057 C-5.16838832 22.772761 -5.06663034 16.52536981 -4.96899414 10.27789307 C-5.62899414 10.27789307 -6.28899414 10.27789307 -6.96899414 10.27789307 C-8.35024432 7.51539271 -8.1597872 5.33058207 -7.96899414 2.27789307 C-5.36593522 -0.32516585 -3.54620875 0.02964329 0 0 Z M2.65600586 17.02789307 C0.54873138 19.88827371 0.54873138 19.88827371 0.03100586 23.27789307 C1.3591465 27.18418908 2.24553014 28.85100409 5.90600586 30.84039307 C9.05083024 31.56532098 9.05083024 31.56532098 11.78100586 30.02789307 C14.06718266 28.32440609 14.06718266 28.32440609 16.03100586 26.27789307 C16.45934671 22.42282544 16.58997788 20.14988941 14.46850586 16.84039307 C10.33989519 14.19384777 6.63378754 14.09689604 2.65600586 17.02789307 Z " fill="#F8FBFC" transform="translate(54.968994140625,13.72210693359375)"/>
<path d="M0 0 C6.63833891 3.90748785 9.33096584 10.51966811 12.75 17.1875 C13.97547817 19.52400654 15.20204763 21.85994102 16.4296875 24.1953125 C17.03006836 25.34547852 17.63044922 26.49564453 18.24902344 27.68066406 C21.11828284 33.11993495 24.13275535 38.47569698 27.15527344 43.83081055 C30 48.8997169 30 48.8997169 30 50 C7.56 50 -14.88 50 -38 50 C-49.64645354 26.70709292 -49.64645354 26.70709292 -48 21 C-43.34595665 16.16323616 -36.96603072 13.24375038 -30.9375 10.5 C-30.11548096 10.11980713 -29.29346191 9.73961426 -28.4465332 9.34790039 C-5.98569632 -0.9409483 -5.98569632 -0.9409483 0 0 Z " fill="#F04334" transform="translate(237,20)"/>
<path d="M0 0 C6.2017295 -0.4025161 12.14467574 0.15328398 18.25 1.1875 C18.92289062 1.28844971 19.59578125 1.38939941 20.2890625 1.4934082 C25.58487814 2.46347918 28.34115881 4.21882673 32 8 C33.01017503 10.80985578 32.89707344 12.96366641 33 16 C34.1446875 16.0928125 34.1446875 16.0928125 35.3125 16.1875 C41.23225759 17.49185337 47.82414373 19.42052007 51.83203125 24.171875 C55.74373259 33.64368695 50.50792913 43.97145514 48 53 C35.13 53 22.26 53 9 53 C7.77935941 46.89679707 6.57771839 40.82307443 5.5625 34.6875 C5.43762207 33.93839355 5.31274414 33.18928711 5.18408203 32.41748047 C4.00950279 25.26295844 2.98669824 18.08795357 2.00219727 10.9050293 C1.88545654 10.06238525 1.76871582 9.21974121 1.6484375 8.3515625 C1.54708496 7.60729004 1.44573242 6.86301758 1.34130859 6.09619141 C1.00409297 4.02513753 0.53897259 2.02701807 0 0 Z " fill="#722825" transform="translate(274,17)"/>
<path d="M0 0 C1.29550781 0.00322266 2.59101563 0.00644531 3.92578125 0.00976562 C5.28906317 0.01812027 6.65234442 0.02658521 8.015625 0.03515625 C9.39452965 0.04017457 10.77343604 0.0447369 12.15234375 0.04882812 C15.52348159 0.06061532 18.89453128 0.0770699 22.265625 0.09765625 C22.760625 1.08765625 22.760625 1.08765625 23.265625 2.09765625 C13.695625 2.09765625 4.125625 2.09765625 -5.734375 2.09765625 C-5.404375 2.75765625 -5.074375 3.41765625 -4.734375 4.09765625 C-4.12440674 4.10700195 -3.51443848 4.11634766 -2.88598633 4.12597656 C-0.10548013 4.17986951 2.67337762 4.26347694 5.453125 4.34765625 C6.41283203 4.36183594 7.37253906 4.37601563 8.36132812 4.390625 C12.57495632 4.53642528 15.54951672 4.7198885 19.31640625 6.70703125 C23.62205446 11.98770601 23.85007287 19.22608843 24.765625 25.78515625 C25.02119911 27.56523885 25.27770631 29.34518773 25.53515625 31.125 C25.72005615 32.40673096 25.72005615 32.40673096 25.90869141 33.71435547 C26.36623491 36.76944416 26.90567004 39.807534 27.453125 42.84765625 C28.22562273 47.3421885 28.44080396 51.54300336 28.265625 56.09765625 C25.295625 56.09765625 22.325625 56.09765625 19.265625 56.09765625 C18.94400391 55.4742334 18.62238281 54.85081055 18.29101562 54.20849609 C12.71727153 43.42079666 7.13382352 32.6728923 1.0078125 22.1875 C-1.30125717 18.09226657 -3.32810334 13.8817101 -5.3125 9.62109375 C-6.81039736 6.96273745 -8.5669237 5.21879448 -10.734375 3.09765625 C-10.734375 2.43765625 -10.734375 1.77765625 -10.734375 1.09765625 C-7.12801267 -0.03030773 -3.76293496 -0.0165041 0 0 Z " fill="#CF2B18" transform="translate(250.734375,13.90234375)"/>
<path d="M0 0 C4.08718695 -0.24042276 7.17679443 0.57741188 11 2 C11 2.33 11 2.66 11 3 C8.69 3 6.38 3 4 3 C4.33 4.32 4.66 5.64 5 7 C5.86882812 7.03738281 6.73765625 7.07476563 7.6328125 7.11328125 C19.61008494 7.79654847 19.61008494 7.79654847 24 11 C26.6912945 14.72431663 26.08061264 18.64419028 25.75 23 C25.6991626 23.77585449 25.6483252 24.55170898 25.59594727 25.35107422 C24.95540481 34.58701633 23.98957091 43.79602982 23 53 C18.38 53 13.76 53 9 53 C6.07847777 39.06658629 3.93480033 25.00531139 2.00219727 10.9050293 C1.88545654 10.06238525 1.76871582 9.21974121 1.6484375 8.3515625 C1.54708496 7.60729004 1.44573242 6.86301758 1.34130859 6.09619141 C1.00409297 4.02513753 0.53897259 2.02701807 0 0 Z " fill="#DC2C19" transform="translate(274,17)"/>
<path d="M0 0 C6.63833891 3.90748785 9.33096584 10.51966811 12.75 17.1875 C13.97547817 19.52400654 15.20204763 21.85994102 16.4296875 24.1953125 C17.03006836 25.34547852 17.63044922 26.49564453 18.24902344 27.68066406 C21.11828284 33.11993495 24.13275535 38.47569698 27.15527344 43.83081055 C30 48.8997169 30 48.8997169 30 50 C24.39 50 18.78 50 13 50 C12.67 48.35 12.34 46.7 12 45 C11.34 44.01 10.68 43.02 10 42 C9.01 42.495 9.01 42.495 8 43 C8.20625 42.4225 8.4125 41.845 8.625 41.25 C9.09446936 38.43318383 8.50624602 37.37828319 7 35 C6.34 34.34 5.68 33.68 5 33 C4.1436973 30.36766208 3.61070073 27.70453182 3 25 C2.34 25 1.68 25 1 25 C0.34 23.02 -0.32 21.04 -1 19 C-2.32 19.33 -3.64 19.66 -5 20 C-5 18.68 -5 17.36 -5 16 C-4.34 16 -3.68 16 -3 16 C-3.495 13.525 -3.495 13.525 -4 11 C-4.66 11 -5.32 11 -6 11 C-6.66 9.02 -7.32 7.04 -8 5 C-9.56499883 5.42847541 -11.12690752 5.86824375 -12.6875 6.3125 C-13.55761719 6.55613281 -14.42773438 6.79976562 -15.32421875 7.05078125 C-18.16008659 8.05678984 -20.43107877 9.44576239 -23 11 C-24.71429239 11.6451638 -26.44474032 12.2487417 -28.1875 12.8125 C-33.98389629 14.84163195 -40.57887278 17.57887278 -45 22 C-45.76750911 28.58487933 -43.46022298 33.02984219 -40.5 38.8125 C-39.65313624 40.50495595 -38.80923006 42.19889608 -37.96875 43.89453125 C-37.59169922 44.63550049 -37.21464844 45.37646973 -36.82617188 46.13989258 C-36 48 -36 48 -36 50 C-39 49 -39 49 -40.16674805 47.17749023 C-41.35627992 44.60401693 -42.53620998 42.02836159 -43.6875 39.4375 C-44.31108398 38.11395508 -44.31108398 38.11395508 -44.94726562 36.76367188 C-47.40487119 31.30367133 -49.23336386 26.96647595 -48 21 C-43.55974249 15.99335321 -36.92868665 13.22675406 -30.9375 10.5 C-30.11548096 10.11980713 -29.29346191 9.73961426 -28.4465332 9.34790039 C-5.98569632 -0.9409483 -5.98569632 -0.9409483 0 0 Z " fill="#D02713" transform="translate(237,20)"/>
<path d="M0 0 C1.09123169 -0.00953201 2.18246338 -0.01906403 3.3067627 -0.02888489 C4.48492554 -0.02797348 5.66308838 -0.02706207 6.87695312 -0.02612305 C8.08637573 -0.03040817 9.29579834 -0.0346933 10.54187012 -0.03910828 C13.10066094 -0.04485505 15.65946811 -0.0453493 18.21826172 -0.04101562 C22.14253454 -0.03785442 26.06605474 -0.06131611 29.99023438 -0.08666992 C32.47330634 -0.08894266 34.95638033 -0.08964653 37.43945312 -0.08862305 C38.61761597 -0.09783279 39.79577881 -0.10704254 41.00964355 -0.11653137 C42.10087524 -0.11030258 43.19210693 -0.10407379 44.31640625 -0.09765625 C45.27776489 -0.09828568 46.23912354 -0.0989151 47.22961426 -0.0995636 C49.65820312 0.2746582 49.65820312 0.2746582 51.51159668 1.59870911 C52.65820312 3.2746582 52.65820312 3.2746582 52.34570312 6.4621582 C52.11882812 7.3902832 51.89195312 8.3184082 51.65820312 9.2746582 C50.33820313 9.6046582 49.01820313 9.9346582 47.65820312 10.2746582 C47.66980469 11.49024414 47.68140625 12.70583008 47.69335938 13.95825195 C47.70273591 15.54288584 47.71183625 17.12752138 47.72070312 18.7121582 C47.72908203 19.51459961 47.73746094 20.31704102 47.74609375 21.14379883 C47.75471743 23.18761041 47.71048462 25.23149722 47.65820312 27.2746582 C46.65820312 28.2746582 46.65820312 28.2746582 44.15820312 28.3996582 C41.65820312 28.2746582 41.65820312 28.2746582 40.65820312 27.2746582 C40.65820312 21.6646582 40.65820312 16.0546582 40.65820312 10.2746582 C28.11820313 10.2746582 15.57820313 10.2746582 2.65820312 10.2746582 C2.65820312 16.2146582 2.65820312 22.1546582 2.65820312 28.2746582 C1.00820312 28.2746582 -0.64179687 28.2746582 -2.34179688 28.2746582 C-4.52556413 26.09089095 -3.64270209 20.2793157 -3.68359375 17.17700195 C-3.73834 14.75297558 -3.73834 14.75297558 -4.34179688 11.2746582 C-6.25511224 9.43210769 -6.25511224 9.43210769 -8.34179688 8.2746582 C-8.77929688 5.2121582 -8.77929688 5.2121582 -8.34179688 2.2746582 C-4.99939418 0.04638974 -3.90304128 0.01870565 0 0 Z " fill="#FAFCFD" transform="translate(104.341796875,24.725341796875)"/>
<path d="M0 0 C1.97909398 -0.02686553 3.95828971 -0.04633375 5.9375 -0.0625 C7.03964844 -0.07410156 8.14179687 -0.08570312 9.27734375 -0.09765625 C12 0 12 0 13 1 C15.50416935 1.21063107 17.99140081 1.37572077 20.5 1.5 C27.86486486 1.86486486 27.86486486 1.86486486 29 3 C29.04080783 4.99958364 29.04254356 7.00045254 29 9 C26.03 9 23.06 9 20 9 C20 9.66 20 10.32 20 11 C22.97 11 25.94 11 29 11 C28.69117716 17.69116151 27.85532173 22.18372911 23 27 C19.77263488 29.15157675 18.17269253 30.19090344 14.3125 29.5625 C13.549375 29.376875 12.78625 29.19125 12 29 C11.97486328 28.08734375 11.97486328 28.08734375 11.94921875 27.15625 C10.94787795 16.99338819 4.94253345 9.92006548 -1 2 C-0.67 1.34 -0.34 0.68 0 0 Z " fill="#F9FBFC" transform="translate(113,112)"/>
<path d="M0 0 C5.61078622 4.32192853 8.54183341 11.38203827 11.625 17.5625 C12.66201042 19.60000406 13.70113447 21.63643352 14.7421875 23.671875 C15.27295898 24.71150391 15.80373047 25.75113281 16.35058594 26.82226562 C19.55894208 33.00343252 22.9509527 39.08596577 26.34228516 45.16821289 C27.06230713 46.47133423 27.06230713 46.47133423 27.796875 47.80078125 C28.43641113 48.94800659 28.43641113 48.94800659 29.08886719 50.1184082 C30 52 30 52 30 54 C28.19165039 53.81982422 28.19165039 53.81982422 26 53 C24.43530273 50.80126953 24.43530273 50.80126953 22.93359375 47.8828125 C22.37075684 46.809104 21.80791992 45.73539551 21.22802734 44.62915039 C20.63715332 43.47278076 20.0462793 42.31641113 19.4375 41.125 C18.50728288 39.3459682 17.57145751 37.56996671 16.63513184 35.79414368 C16.00458783 34.59800839 15.37544274 33.40113464 14.74768066 32.20353699 C11.89281432 26.76323068 8.92845384 21.39349106 5.875 16.0625 C5.43857178 15.28342285 5.00214355 14.5043457 4.55249023 13.70166016 C1.69875982 8.39638906 1.69875982 8.39638906 -3 5 C-10.92827892 4.97663572 -17.25915093 7.92606918 -24.375 11.1875 C-25.43460938 11.65736328 -26.49421875 12.12722656 -27.5859375 12.61132812 C-39.59524529 17.5582639 -39.59524529 17.5582639 -50 25 C-50.85730603 32.25412795 -48.49430406 37.48086953 -45.5 44 C-45.07074219 44.96550781 -44.64148438 45.93101563 -44.19921875 46.92578125 C-43.14582002 49.29007617 -42.07931446 51.64745169 -41 54 C-42.32 54 -43.64 54 -45 54 C-46.85535409 50.1560616 -48.6802175 46.2983899 -50.5 42.4375 C-51.02464844 41.35146484 -51.54929688 40.26542969 -52.08984375 39.14648438 C-57.22546568 28.17492844 -57.22546568 28.17492844 -56 23 C-51.820097 18.42551416 -46.68525794 16.18138765 -41.0625 13.75 C-40.20438721 13.37302979 -39.34627441 12.99605957 -38.4621582 12.60766602 C-31.57948723 9.61699999 -24.64884542 6.73973413 -17.6875 3.9375 C-16.2480603 3.34630371 -16.2480603 3.34630371 -14.77954102 2.74316406 C-5.07452424 -1.08165864 -5.07452424 -1.08165864 0 0 Z " fill="#EFE5E5" transform="translate(240,16)"/>
<path d="M0 0 C0.33 0.33 0.66 0.66 1 1 C2.2375 1.2475 2.2375 1.2475 3.5 1.5 C6 2 6 2 7 3 C8.99172182 3.69100553 10.99161804 4.35902703 13 5 C11.6744419 8.62276315 10.05653045 11.63505348 7.875 14.8125 C7.33617187 15.60269531 6.79734375 16.39289062 6.2421875 17.20703125 C5.83226562 17.79871094 5.42234375 18.39039062 5 19 C2.0625 18.625 2.0625 18.625 -1 18 C-1.33 17.34 -1.66 16.68 -2 16 C-4.52733235 15.34444881 -4.52733235 15.34444881 -7 15 C-7 14.01 -7 13.02 -7 12 C-7.99 13.485 -7.99 13.485 -9 15 C-6.525 15.99 -6.525 15.99 -4 17 C-4.8125 19.9375 -4.8125 19.9375 -6 23 C-9 24 -9 24 -12 23 C-12 22.34 -12 21.68 -12 21 C-12.66 21 -13.32 21 -14 21 C-16.90698547 16.00361873 -19.02826094 11.94106323 -18 6 C-15.875 3.75 -15.875 3.75 -13 2 C-12.05125 1.401875 -11.1025 0.80375 -10.125 0.1875 C-6.30269224 -1.26497695 -3.93896037 -0.92681421 0 0 Z " fill="#F54637" transform="translate(209,36)"/>
<path d="M0 0 C2.21356158 2.17842568 4.13171886 4.5222087 6 7 C6.33 4.36 6.66 1.72 7 -1 C12.75 -2.125 12.75 -2.125 15 -1 C15 5.93 15 12.86 15 20 C7 20 7 20 4.6875 18.03125 C3.8521875 16.77828125 3.8521875 16.77828125 3 15.5 C2.4225 14.6646875 1.845 13.829375 1.25 12.96875 C0.8375 12.3190625 0.425 11.669375 0 11 C-0.33 13.97 -0.66 16.94 -1 20 C-3.64 20 -6.28 20 -9 20 C-9 13.07 -9 6.14 -9 -1 C-5.05627547 -2.31457484 -3.74701691 -1.76330208 0 0 Z " fill="#F6F9FB" transform="translate(92,75)"/>
<path d="M0 0 C1.5 1.6875 1.5 1.6875 2 4 C1.74889902 6.34360915 1.41434251 8.67968195 1 11 C1 14.27275026 1.29925156 16.846632 2 20 C-1.25 20.3125 -1.25 20.3125 -5 20 C-7.1875 17.5625 -7.1875 17.5625 -9 15 C-11.12946603 14.13034494 -11.12946603 14.13034494 -13 14 C-12.979375 14.804375 -12.95875 15.60875 -12.9375 16.4375 C-13 19 -13 19 -14 20 C-16.31 20 -18.62 20 -21 20 C-21 13.07 -21 6.14 -21 -1 C-14.37241182 -3.20919606 -6.41356238 -2.72917548 0 0 Z M-13 4 C-13 5.32 -13 6.64 -13 8 C-10.69 8 -8.38 8 -6 8 C-6.33 6.68 -6.66 5.36 -7 4 C-8.98 4 -10.96 4 -13 4 Z " fill="#F8FBFC" transform="translate(166,75)"/>
<path d="M0 0 C2.66370139 4.35071228 2.78214749 8.08544754 1.875 13.0625 C0.07853146 15.99673195 -1.0691071 17.53455355 -4.125 19.0625 C-6.39145766 19.23772676 -8.66472854 19.32978256 -10.9375 19.375 C-12.77248047 19.43107422 -12.77248047 19.43107422 -14.64453125 19.48828125 C-18.71457269 18.99037495 -20.29067704 17.97016958 -23.125 15.0625 C-24.60526219 10.62171344 -24.8287372 6.11957797 -23.3125 1.6875 C-21.47992658 -0.82023205 -19.51752921 -1.83218729 -16.5625 -2.625 C-10.5265676 -3.17372113 -5.25234798 -3.25645575 0 0 Z M-16.125 6.0625 C-16.37505386 9.10432893 -16.37505386 9.10432893 -16.125 12.0625 C-14.23011048 13.95738952 -11.55360854 13.24269112 -9.03515625 13.29296875 C-6.8837364 13.2327792 -6.8837364 13.2327792 -5.125 11.0625 C-4.70833333 8.5625 -4.70833333 8.5625 -5.125 6.0625 C-9.01503599 3.46914267 -12.60419215 2.54169215 -16.125 6.0625 Z " fill="#F8FAFB" transform="translate(137.125,75.9375)"/>
<path d="M0 0 C4.80387931 1.6012931 4.80387931 1.6012931 6.5625 4.1875 C8.07937471 8.73812413 8.28145824 12.56984396 6.3125 17 C4.34362812 19.46108985 3.51185051 20.13348531 0.5625 21.1875 C-2.36006683 21.42608448 -5.25780809 21.3751761 -8.1875 21.3125 C-12.27125 21.250625 -12.27125 21.250625 -16.4375 21.1875 C-16.4375 14.2575 -16.4375 7.3275 -16.4375 0.1875 C-11.69369965 -2.18440017 -5.04083095 -1.12226292 0 0 Z M-9.4375 5.1875 C-9.4375 8.4875 -9.4375 11.7875 -9.4375 15.1875 C-6.02093976 15.35427282 -6.02093976 15.35427282 -2.4375 15.1875 C-0.13087401 13.30090125 -0.13087401 13.30090125 -0.125 10.1875 C-0.228125 9.1975 -0.33125 8.2075 -0.4375 7.1875 C-3.8727048 4.89736347 -5.422831 5.00907027 -9.4375 5.1875 Z " fill="#F8FBFD" transform="translate(250.4375,73.8125)"/>
<path d="M0 0 C1.29550781 0.00322266 2.59101563 0.00644531 3.92578125 0.00976562 C5.28906317 0.01812027 6.65234442 0.02658521 8.015625 0.03515625 C9.39452965 0.04017457 10.77343604 0.0447369 12.15234375 0.04882812 C15.52348159 0.06061532 18.89453128 0.0770699 22.265625 0.09765625 C22.760625 1.08765625 22.760625 1.08765625 23.265625 2.09765625 C13.695625 2.09765625 4.125625 2.09765625 -5.734375 2.09765625 C-5.404375 2.75765625 -5.074375 3.41765625 -4.734375 4.09765625 C-4.12440674 4.10700195 -3.51443848 4.11634766 -2.88598633 4.12597656 C-0.10548013 4.17986951 2.67337762 4.26347694 5.453125 4.34765625 C6.41283203 4.36183594 7.37253906 4.37601563 8.36132812 4.390625 C12.57495632 4.53642528 15.54951672 4.7198885 19.31640625 6.70703125 C23.62205446 11.98770601 23.85007287 19.22608843 24.765625 25.78515625 C25.02119911 27.56523885 25.27770631 29.34518773 25.53515625 31.125 C25.72005615 32.40673096 25.72005615 32.40673096 25.90869141 33.71435547 C26.36623491 36.76944416 26.90567004 39.807534 27.453125 42.84765625 C28.22562273 47.3421885 28.44080396 51.54300336 28.265625 56.09765625 C27.605625 56.09765625 26.945625 56.09765625 26.265625 56.09765625 C26.14501709 55.23769043 26.14501709 55.23769043 26.02197266 54.36035156 C24.03521461 40.06357444 24.03521461 40.06357444 21.7265625 25.81640625 C21.38832967 23.82140582 21.08617298 21.82020117 20.8046875 19.81640625 C20.64742188 18.73359375 20.49015625 17.65078125 20.328125 16.53515625 C20.12896484 15.07916016 20.12896484 15.07916016 19.92578125 13.59375 C19.16330078 10.71076172 18.80873256 9.66947427 16.265625 8.09765625 C13.6731488 7.85242202 11.34696439 7.76898686 8.765625 7.84765625 C8.08886719 7.8528125 7.41210938 7.85796875 6.71484375 7.86328125 C3.64604763 7.91170407 1.19479308 8.12126689 -1.734375 9.09765625 C-1.11441422 10.39174914 -0.48821147 11.68285298 0.140625 12.97265625 C0.66269531 14.05160156 0.66269531 14.05160156 1.1953125 15.15234375 C2.23120043 17.24900644 2.23120043 17.24900644 4.265625 19.09765625 C4.390625 21.72265625 4.390625 21.72265625 4.265625 24.09765625 C4.925625 24.09765625 5.585625 24.09765625 6.265625 24.09765625 C7.56418107 26.30218167 8.85450695 28.51088921 10.140625 30.72265625 C10.50542969 31.34011719 10.87023437 31.95757812 11.24609375 32.59375 C13.42462987 36.35667602 14.88606143 39.95896553 16.265625 44.09765625 C16.925625 44.42765625 17.585625 44.75765625 18.265625 45.09765625 C19.3359375 47.09375 19.3359375 47.09375 20.390625 49.53515625 C20.74382812 50.33824219 21.09703125 51.14132813 21.4609375 51.96875 C22.265625 54.09765625 22.265625 54.09765625 22.265625 56.09765625 C21.275625 56.09765625 20.285625 56.09765625 19.265625 56.09765625 C18.94400391 55.4742334 18.62238281 54.85081055 18.29101562 54.20849609 C12.71727153 43.42079666 7.13382352 32.6728923 1.0078125 22.1875 C-1.30125717 18.09226657 -3.32810334 13.8817101 -5.3125 9.62109375 C-6.81039736 6.96273745 -8.5669237 5.21879448 -10.734375 3.09765625 C-10.734375 2.43765625 -10.734375 1.77765625 -10.734375 1.09765625 C-7.12801267 -0.03030773 -3.76293496 -0.0165041 0 0 Z " fill="#712722" transform="translate(250.734375,13.90234375)"/>
<path d="M0 0 C1.23621094 0.10183594 2.47242188 0.20367187 3.74609375 0.30859375 C4.67550781 0.39238281 5.60492188 0.47617188 6.5625 0.5625 C6.5625 2.2125 6.5625 3.8625 6.5625 5.5625 C1.9425 5.5625 -2.6775 5.5625 -7.4375 5.5625 C-7.4375 6.5525 -7.4375 7.5425 -7.4375 8.5625 C-3.8075 8.5625 -0.1775 8.5625 3.5625 8.5625 C3.4696875 9.985625 3.4696875 9.985625 3.375 11.4375 C3.436875 12.46875 3.49875 13.5 3.5625 14.5625 C4.5525 15.2225 5.5425 15.8825 6.5625 16.5625 C6.5625 18.2125 6.5625 19.8625 6.5625 21.5625 C-0.3675 21.5625 -7.2975 21.5625 -14.4375 21.5625 C-14.4375 14.6325 -14.4375 7.7025 -14.4375 0.5625 C-9.06543402 -0.204938 -5.25759596 -0.45065108 0 0 Z " fill="#FAFBFC" transform="translate(278.4375,73.4375)"/>
<path d="M0 0 C0 1.65 0 3.3 0 5 C-4.95 5 -9.9 5 -15 5 C-15 7.31 -15 9.62 -15 12 C-13.03177114 13.96822886 -9.65191291 13.66248381 -7 14 C-6.67 12.35 -6.34 10.7 -6 9 C-4.00045254 8.95745644 -1.99958364 8.95919217 0 9 C1.89885096 10.89885096 1.12367506 13.57247903 1.1328125 16.08984375 C1 18 1 18 0 20 C-2.72977064 20.08126109 -5.4571017 20.14061663 -8.1875 20.1875 C-8.95642578 20.21263672 -9.72535156 20.23777344 -10.51757812 20.26367188 C-15.20302001 20.32399945 -18.17220664 20.0107067 -22 17 C-24.56632517 13.57823311 -24.36435051 10.15359579 -24 6 C-22.56286122 2.28034668 -21.34430435 1.19969652 -17.875 -0.8125 C-11.96106356 -3.01769664 -5.63758959 -2.90972366 0 0 Z " fill="#F4FAFC" transform="translate(197,75)"/>
<path d="M0 0 C1.99954746 -0.04254356 4.00041636 -0.04080783 6 0 C7.93805239 1.93805239 7.21922188 5.37009173 7.25 7.9375 C7.22378227 17.5594061 5.93988374 25.14232142 -0.92578125 32.23828125 C-7.44875221 37.77850705 -13.4514352 39.5875343 -21.9453125 39.17578125 C-22.96238281 39.08876953 -22.96238281 39.08876953 -24 39 C-23.1640625 36.5703125 -23.1640625 36.5703125 -22 34 C-19.375 32.875 -19.375 32.875 -16 32 C-9.83777559 30.23936445 -6.59990307 28.3998546 -3 23 C-0.94643313 18.03476868 -0.59034279 13.41884368 -0.375 8.125 C-0.33632812 7.34125 -0.29765625 6.5575 -0.2578125 5.75 C-0.16433378 3.83368633 -0.08111505 1.91687681 0 0 Z " fill="#F5F9FB" transform="translate(145,112)"/>
<path d="M0 0 C2.31 0 4.62 0 7 0 C7 2.64 7 5.28 7 8 C7.99 8 8.98 8 10 8 C10.268125 7.236875 10.53625 6.47375 10.8125 5.6875 C12.67491927 1.47255113 12.67491927 1.47255113 15 0 C17.71821651 -0.24759992 20.25948688 -0.13477933 23 0 C21.68775452 3.93673644 20.08089673 6.22719294 17 9 C18.0079347 12.02380411 18.84747282 13.84747282 21.125 16.125 C23 18 23 18 23 21 C15.7735697 21.61240935 15.7735697 21.61240935 12 18.625 C10 16 10 16 10 14 C9.01 14 8.02 14 7 14 C7 16.31 7 18.62 7 21 C4.69 21 2.38 21 0 21 C0 14.07 0 7.14 0 0 Z " fill="#F9FBFC" transform="translate(318,74)"/>
<path d="M0 0 C1.134375 0.020625 2.26875 0.04125 3.4375 0.0625 C4.9510972 2.80522401 6.44590709 5.55775633 7.9375 8.3125 C8.36675781 9.08980469 8.79601562 9.86710937 9.23828125 10.66796875 C9.64433594 11.42207031 10.05039063 12.17617187 10.46875 12.953125 C10.84580078 13.64438477 11.22285156 14.33564453 11.61132812 15.04785156 C12.4375 17.0625 12.4375 17.0625 12.4375 21.0625 C10.1275 21.0625 7.8175 21.0625 5.4375 21.0625 C5.1075 19.7425 4.7775 18.4225 4.4375 17.0625 C1.4675 17.0625 -1.5025 17.0625 -4.5625 17.0625 C-4.8925 18.3825 -5.2225 19.7025 -5.5625 21.0625 C-7.8725 21.0625 -10.1825 21.0625 -12.5625 21.0625 C-12.01260261 16.09051107 -10.35737209 12.13237623 -8.0625 7.75 C-7.74152344 7.11771484 -7.42054688 6.48542969 -7.08984375 5.83398438 C-4.13813715 0.0725989 -4.13813715 0.0725989 0 0 Z M-0.5625 7.0625 C-0.8925 8.3825 -1.2225 9.7025 -1.5625 11.0625 C-0.5725 10.7325 0.4175 10.4025 1.4375 10.0625 C0.7775 9.0725 0.1175 8.0825 -0.5625 7.0625 Z " fill="#F9FBFC" transform="translate(215.5625,73.9375)"/>
<path d="M0 0 C0.38218767 1.65614657 0.71395102 3.32457024 1 5 C0 6 0 6 -2.6875 6.0625 C-4.89583333 6.02083333 -7.10416667 5.97916667 -9.3125 5.9375 C-11.918828 5.68866942 -11.918828 5.68866942 -13 7 C-13.16666667 10 -13.16666667 10 -13 13 C-11.91447634 14.31262571 -11.91447634 14.31262571 -9.27734375 14.09765625 C-8.17519531 14.08605469 -7.07304687 14.07445313 -5.9375 14.0625 C-4.83277344 14.05347656 -3.72804688 14.04445313 -2.58984375 14.03515625 C-1.73519531 14.02355469 -0.88054687 14.01195313 0 14 C0.38133299 15.9914056 0.71325582 17.99279077 1 20 C-1.04128347 22.04128347 -4.96352323 21.32103654 -7.75 21.375 C-8.46671875 21.41238281 -9.1834375 21.44976562 -9.921875 21.48828125 C-13.89016397 21.55393309 -15.76350447 21.17956142 -18.953125 18.7578125 C-21.85243752 14.85148686 -22.27842337 11.78540162 -22 7 C-20.70058746 3.26418895 -19.39270994 2.25066592 -16.0625 0.125 C-10.89352363 -1.86906632 -5.35121809 -0.72931215 0 0 Z " fill="#F6FAFD" transform="translate(312,74)"/>
<path d="M0 0 C6.63844004 3.90754738 9.33073441 10.51969365 12.75 17.1875 C13.97554715 19.52266858 15.20211627 21.85730108 16.4296875 24.19140625 C17.03006836 25.34141113 17.63044922 26.49141602 18.24902344 27.67626953 C20.71970706 32.36615895 23.28506337 37.00018122 25.875 41.625 C26.29749023 42.38192139 26.71998047 43.13884277 27.15527344 43.91870117 C28.10184483 45.61340175 29.05062219 47.30686999 30 49 C28.515 49.495 28.515 49.495 27 50 C25.58087449 47.50136876 24.1646616 45.00115719 22.75 42.5 C22.35425781 41.80390625 21.95851563 41.1078125 21.55078125 40.390625 C14 27.02202869 14 27.02202869 14 24 C13.34 24 12.68 24 12 24 C11.54625 22.865625 11.0925 21.73125 10.625 20.5625 C9.42904194 16.95278308 9.42904194 16.95278308 7 16 C6.2769239 14.02797427 5.55430929 12.05577553 4.8359375 10.08203125 C3.63231511 7.08422409 2.4591282 5.11758261 0 3 C-5.12515864 3.33833566 -9.39887807 4.74295091 -14.125 6.6875 C-14.77098145 6.95296631 -15.41696289 7.21843262 -16.08251953 7.49194336 C-31.55127799 13.09457462 -31.55127799 13.09457462 -45 22 C-45.76750911 28.58487933 -43.46022298 33.02984219 -40.5 38.8125 C-39.65313624 40.50495595 -38.80923006 42.19889608 -37.96875 43.89453125 C-37.59169922 44.63550049 -37.21464844 45.37646973 -36.82617188 46.13989258 C-36 48 -36 48 -36 50 C-39 49 -39 49 -40.16674805 47.17749023 C-41.35627992 44.60401693 -42.53620998 42.02836159 -43.6875 39.4375 C-44.31108398 38.11395508 -44.31108398 38.11395508 -44.94726562 36.76367188 C-47.40487119 31.30367133 -49.23336386 26.96647595 -48 21 C-43.55974249 15.99335321 -36.92868665 13.22675406 -30.9375 10.5 C-30.11548096 10.11980713 -29.29346191 9.73961426 -28.4465332 9.34790039 C-5.98569632 -0.9409483 -5.98569632 -0.9409483 0 0 Z " fill="#762A24" transform="translate(237,20)"/>
<path d="M0 0 C4.08718695 -0.24042276 7.17679443 0.57741188 11 2 C11 2.33 11 2.66 11 3 C8.69 3 6.38 3 4 3 C4.33 4.32 4.66 5.64 5 7 C5.86882812 7.03738281 6.73765625 7.07476563 7.6328125 7.11328125 C19.61008494 7.79654847 19.61008494 7.79654847 24 11 C26.6912945 14.72431663 26.08061264 18.64419028 25.75 23 C25.6991626 23.77585449 25.6483252 24.55170898 25.59594727 25.35107422 C24.95540481 34.58701633 23.98957091 43.79602982 23 53 C22.34 53 21.68 53 21 53 C21.51612831 41.98560228 22.05762937 30.9876405 23 20 C21.68 20.33 20.36 20.66 19 21 C19.495 20.608125 19.99 20.21625 20.5 19.8125 C22.45593143 17.44908285 22.24207973 15.98564997 22 13 C18.13598095 11.37304461 14.9153876 10.88326825 10.7734375 10.9375 C9.43031494 10.95103516 9.43031494 10.95103516 8.06005859 10.96484375 C7.04032959 10.98224609 7.04032959 10.98224609 6 11 C6.69010124 16.07252931 7.3839562 21.14452557 8.08129883 26.21606445 C8.31801 27.94150884 8.5536938 29.6670945 8.78833008 31.39282227 C9.12571702 33.8729373 9.46679225 36.35252126 9.80859375 38.83203125 C9.91280136 39.60400345 10.01700897 40.37597565 10.12437439 41.17134094 C10.54990499 44.23651078 11.01889219 47.05667657 12 50 C11.67 50.99 11.34 51.98 11 53 C10.34 53 9.68 53 9 53 C6.07847777 39.06658629 3.93480033 25.00531139 2.00219727 10.9050293 C1.88545654 10.06238525 1.76871582 9.21974121 1.6484375 8.3515625 C1.54708496 7.60729004 1.44573242 6.86301758 1.34130859 6.09619141 C1.00409297 4.02513753 0.53897259 2.02701807 0 0 Z " fill="#702724" transform="translate(274,17)"/>
<path d="M0 0 C9 2 9 2 11.0625 3.75 C13.43148177 9.43555625 11.34670061 14.85486251 9.5 20.375 C9.26152344 21.11105469 9.02304687 21.84710938 8.77734375 22.60546875 C8.19269212 24.40619578 7.5974212 26.2034691 7 28 C4.03 28 1.06 28 -2 28 C-1.34 18.76 -0.68 9.52 0 0 Z " fill="#D62D1C" transform="translate(305,42)"/>
<path d="M0 0 C4.41632177 -0.14509751 8.83203193 -0.23400818 13.25 -0.3125 C14.50425781 -0.35439453 15.75851562 -0.39628906 17.05078125 -0.43945312 C18.85869141 -0.46362305 18.85869141 -0.46362305 20.703125 -0.48828125 C22.36843262 -0.52755737 22.36843262 -0.52755737 24.06738281 -0.56762695 C27 0 27 0 29.32104492 2.2109375 C31.00943638 5.01567562 31.68843938 6.90125587 32.16015625 10.11328125 C32.31258789 11.10336182 32.46501953 12.09344238 32.62207031 13.11352539 C32.76741211 14.16918701 32.91275391 15.22484863 33.0625 16.3125 C33.22459961 17.40232178 33.38669922 18.49214355 33.55371094 19.61499023 C35.22526752 31.05070324 36.65346932 42.52191187 38 54 C36.68 54 35.36 54 34 54 C33.39126393 50.43826617 32.78894245 46.87547213 32.1875 43.3125 C32.00372803 42.23572998 31.81995605 41.15895996 31.63061523 40.04956055 C30.7269503 34.67757768 29.88645586 29.31597443 29.2421875 23.90625 C29.12593018 22.96225342 29.00967285 22.01825684 28.88989258 21.0456543 C28.67632449 19.26273506 28.4800167 17.47763842 28.3034668 15.69067383 C27.8243228 11.76809726 27.22224103 9.3505265 25.078125 5.96875 C20.55698824 3.07705847 16.45398088 3.21933232 11.1875 3.1875 C10.20845703 3.16236328 9.22941406 3.13722656 8.22070312 3.11132812 C5.81339803 3.05261337 3.40790438 3.0162202 1 3 C0.67 2.01 0.34 1.02 0 0 Z " fill="#C9DCE4" transform="translate(245,16)"/>
<path d="M0 0 C3.96 0 7.92 0 12 0 C14.96343091 7.40857727 17.19185154 14.05320677 18 22 C18.30169066 23.34084736 18.61517681 24.6806062 19 26 C16.525 27.485 16.525 27.485 14 29 C12.99267601 27.06629769 11.99436712 25.12789694 11 23.1875 C10.443125 22.10855469 9.88625 21.02960937 9.3125 19.91796875 C8 17 8 17 8 14 C7.34 14 6.68 14 6 14 C5.62875 12.9790625 5.62875 12.9790625 5.25 11.9375 C4.2434992 9.57222311 3.1740737 7.51447598 1.875 5.3125 C0 2 0 2 0 0 Z " fill="#F24333" transform="translate(252,21)"/>
<path d="M0 0 C5.48530643 4.55598144 8.50890168 11.31602388 11.625 17.5625 C12.66201042 19.60000406 13.70113447 21.63643352 14.7421875 23.671875 C15.27295898 24.71150391 15.80373047 25.75113281 16.35058594 26.82226562 C19.55894208 33.00343252 22.9509527 39.08596577 26.34228516 45.16821289 C26.8222998 46.03696045 27.30231445 46.90570801 27.796875 47.80078125 C28.22323242 48.56559814 28.64958984 49.33041504 29.08886719 50.1184082 C30 52 30 52 30 54 C28.19165039 53.81982422 28.19165039 53.81982422 26 53 C24.43530273 50.80126953 24.43530273 50.80126953 22.93359375 47.8828125 C22.37075684 46.809104 21.80791992 45.73539551 21.22802734 44.62915039 C20.63715332 43.47278076 20.0462793 42.31641113 19.4375 41.125 C18.50728288 39.3459682 17.57145751 37.56996671 16.63513184 35.79414368 C16.00458783 34.59800839 15.37544274 33.40113464 14.74768066 32.20353699 C11.89281432 26.76323068 8.92845384 21.39349106 5.875 16.0625 C5.43857178 15.28342285 5.00214355 14.5043457 4.55249023 13.70166016 C1.64820846 8.52470301 1.64820846 8.52470301 -3 5 C-5.35929642 4.64042111 -5.35929642 4.64042111 -7.75 4.8125 C-8.54921875 4.83957031 -9.3484375 4.86664062 -10.171875 4.89453125 C-10.77515625 4.92933594 -11.3784375 4.96414062 -12 5 C-12 4.01 -12 3.02 -12 2 C-7.85017102 -0.01203829 -4.58618755 -0.72413488 0 0 Z " fill="#C9DDE4" transform="translate(240,16)"/>
<path d="M0 0 C20.21711416 2.66911339 20.21711416 2.66911339 24.21875 5.65625 C26.67290576 8.88540232 26.27816976 10.61903666 25.875 14.625 C25.74845713 16.03383256 25.6221755 17.4426886 25.49609375 18.8515625 C25.4172998 19.64723633 25.33850586 20.44291016 25.25732422 21.26269531 C24.84561619 25.64226881 24.53286797 30.02896832 24.20556641 34.41552734 C23.81699121 39.61139347 23.4084829 44.80566726 23 50 C21.68 50 20.36 50 19 50 C19.10137985 47.93357677 19.20292445 45.86716154 19.30517578 43.80078125 C19.39403428 42.0039379 19.48224121 40.20706222 19.56982422 38.41015625 C19.79397219 33.87295464 20.03467774 29.3382215 20.32421875 24.8046875 C20.37457275 23.99499512 20.42492676 23.18530273 20.47680664 22.35107422 C20.57373542 20.81330791 20.6755863 19.27584192 20.78295898 17.73876953 C20.99582737 14.30671269 21.14398602 11.27828829 20 8 C13.69239743 6.35318751 7.48472993 4.73690113 1 4 C0.67 2.68 0.34 1.36 0 0 Z " fill="#C8DCE3" transform="translate(278,20)"/>
<path d="M0 0 C0.12375 1.134375 0.2475 2.26875 0.375 3.4375 C0.684375 5.2009375 0.684375 5.2009375 1 7 C1.66 7.33 2.32 7.66 3 8 C2.67 9.32 2.34 10.64 2 12 C2.99 12.33 3.98 12.66 5 13 C4.01 13.495 4.01 13.495 3 14 C3.165 15.134375 3.33 16.26875 3.5 17.4375 C4.07576084 21.97060294 4.09505266 26.43747238 4 31 C2.68 31.33 1.36 31.66 0 32 C0 33.65 0 35.3 0 37 C-0.33 37 -0.66 37 -1 37 C-1.67605479 32.50135882 -2.33915381 28.00089838 -3 23.5 C-3.19078125 22.2315625 -3.3815625 20.963125 -3.578125 19.65625 C-4.49416448 13.37483644 -5.25653442 7.34922684 -5 1 C-2 0 -2 0 0 0 Z " fill="#CD2613" transform="translate(285,27)"/>
<path d="M0 0 C2 2 2 2 2.0625 4.5625 C2.041875 5.366875 2.02125 6.17125 2 7 C2.33 7.33 2.66 7.66 3 8 C3.07313567 10.53049402 3.09247527 13.03304837 3.0625 15.5625 C3.05798828 16.27341797 3.05347656 16.98433594 3.04882812 17.71679688 C3.03700864 19.47790013 3.01907263 21.23896036 3 23 C-0.3 23 -3.6 23 -7 23 C-7.08086147 21.20906809 -7.13912702 19.41710372 -7.1875 17.625 C-7.22230469 16.62726562 -7.25710938 15.62953125 -7.29296875 14.6015625 C-7.19628906 13.74304687 -7.09960938 12.88453125 -7 12 C-6.01 11.34 -5.02 10.68 -4 10 C-3.63702064 8.02252878 -3.63702064 8.02252878 -3.8125 5.875 C-3.874375 4.59625 -3.93625 3.3175 -4 2 C-2.68 1.34 -1.36 0.68 0 0 Z " fill="#D62614" transform="translate(292,47)"/>
<path d="M0 0 C2.8 15.4 2.8 15.4 0 21 C-2.31 21 -4.62 21 -7 21 C-8.16725172 16.54162501 -7.98632142 12.30190981 -7.6875 7.75 C-7.65205078 7.0178125 -7.61660156 6.285625 -7.58007812 5.53125 C-7.46529073 3.68094576 -7.24130179 1.83809014 -7 0 C-4.3333581 -1.33332095 -2.83319697 -0.67102033 0 0 Z " fill="#E6F1F6" transform="translate(77,74)"/>
<path d="M0 0 C13.8630137 3.8630137 13.8630137 3.8630137 17 7 C18.35146152 16.59537681 15.12515166 25.10447904 12 34 C11.01 34 10.02 34 9 34 C9.3734029 29.66656109 9.81507457 25.62004409 11.0625 21.4375 C12.21467827 17.21284633 12.50121947 14.36776969 12 10 C8.62389409 6.11236289 4.84461834 5.1399102 0 4 C0 2.68 0 1.36 0 0 Z " fill="#D3E1E6" transform="translate(306,36)"/>
<path d="M0 0 C14.26409496 3.97477745 14.26409496 3.97477745 17.875 8.1875 C20.61311083 15.03277709 18.53404491 21.74916987 16.5 28.5 C16.14228516 29.73363281 16.14228516 29.73363281 15.77734375 30.9921875 C15.19438261 32.99757382 14.59852849 34.99920475 14 37 C12.68 37 11.36 37 10 37 C11.72366738 27.72153518 11.72366738 27.72153518 13.125 24.0625 C14.45358528 19.41245152 14.15386675 14.80406184 14 10 C9.545 8.02 9.545 8.02 5 6 C5.33 5.01 5.66 4.02 6 3 C3.03 2.505 3.03 2.505 0 2 C0 1.34 0 0.68 0 0 Z " fill="#844A48" transform="translate(308,33)"/>
<path d="M0 0 C1.23737915 -0.0319043 1.23737915 -0.0319043 2.49975586 -0.06445312 C7.22209271 -0.09141315 10.36329221 0.15457051 14.1875 3.25 C14.6825 4.24 14.6825 4.24 15.1875 5.25 C13.8675 5.58 12.5475 5.91 11.1875 6.25 C11.1875 5.26 11.1875 4.27 11.1875 3.25 C7.31389496 3.17441935 3.44058994 3.1207437 -0.43359375 3.08520508 C-2.38036238 3.06314739 -4.32692765 3.02498082 -6.2734375 2.98632812 C-19.23734608 2.88711454 -30.8131953 5.42578974 -42.8125 10.25 C-42.8125 9.59 -42.8125 8.93 -42.8125 8.25 C-43.39 8.600625 -43.9675 8.95125 -44.5625 9.3125 C-47.21036506 10.41577711 -48.14435326 10.05156509 -50.8125 9.25 C-47.53193776 7.88815468 -44.23665014 6.56610302 -40.9375 5.25 C-40.0196875 4.8684375 -39.101875 4.486875 -38.15625 4.09375 C-32.59692051 1.90133837 -28.03000086 0.83504406 -22.04223633 1.15820312 C-19.75242061 1.25247343 -17.6432958 1.05488275 -15.375 0.75 C-10.2533809 0.19365799 -5.14725302 0.06624647 0 0 Z " fill="#905958" transform="translate(261.8125,11.75)"/>
<path d="M0 0 C14.27980474 -0.57203966 14.27980474 -0.57203966 19 3 C21.68766412 6.72834215 21.0807886 10.64187201 20.75 15 C20.6991626 15.77585449 20.6483252 16.55170898 20.59594727 17.35107422 C19.95540481 26.58701633 18.98957091 35.79602982 18 45 C17.34 45 16.68 45 16 45 C16.51612831 33.98560228 17.05762937 22.9876405 18 12 C16.68 12.33 15.36 12.66 14 13 C14.495 12.608125 14.99 12.21625 15.5 11.8125 C17.45593143 9.44908285 17.24207973 7.98564997 17 5 C11.60539047 2.72858546 6.73842251 2.79586639 1 3 C0.67 3.99 0.34 4.98 0 6 C0 4.02 0 2.04 0 0 Z " fill="#832721" transform="translate(279,25)"/>
<path d="M0 0 C1.25159912 0.00523682 2.50319824 0.01047363 3.79272461 0.01586914 C4.78942421 0.01799156 4.78942421 0.01799156 5.80625916 0.02015686 C7.93590735 0.02577021 10.06545175 0.03832485 12.19506836 0.05102539 C13.63582205 0.05603868 15.07657739 0.06060188 16.51733398 0.06469727 C20.05577938 0.07574394 23.59416375 0.09301747 27.13256836 0.11352539 C27.46256836 1.10352539 27.79256836 2.09352539 28.13256836 3.11352539 C27.17543945 3.2044043 27.17543945 3.2044043 26.19897461 3.29711914 C25.37268555 3.3809082 24.54639648 3.46469727 23.69506836 3.55102539 C22.45950195 3.6728418 22.45950195 3.6728418 21.19897461 3.79711914 C19.14594811 3.90283354 19.14594811 3.90283354 18.13256836 5.11352539 C16.57084091 5.20038142 15.00527492 5.22054759 13.44116211 5.21118164 C12.49692383 5.20795898 11.55268555 5.20473633 10.57983398 5.20141602 C9.58661133 5.19303711 8.59338867 5.1846582 7.57006836 5.17602539 C6.57297852 5.17151367 5.57588867 5.16700195 4.54858398 5.16235352 C2.07651987 5.15052546 -0.39542682 5.13404388 -2.86743164 5.11352539 C-3.42993164 3.17602539 -3.42993164 3.17602539 -3.86743164 1.11352539 C-2.86743164 0.11352539 -2.86743164 0.11352539 0 0 Z " fill="#EEF7F9" transform="translate(113.867431640625,47.886474609375)"/>
<path d="M0 0 C0.66 0.33 1.32 0.66 2 1 C-0.97 5.95 -0.97 5.95 -4 11 C-1.21885944 13.33391203 -1.21885944 13.33391203 1.6875 12.625 C2.450625 12.41875 3.21375 12.2125 4 12 C3.67 13.32 3.34 14.64 3 16 C2.34 16 1.68 16 1 16 C0.67 16.99 0.34 17.98 0 19 C-0.33 18.34 -0.66 17.68 -1 17 C-0.67 16.34 -0.34 15.68 0 15 C-4.10223585 13.98459888 -4.10223585 13.98459888 -8 15 C-8.33 14.01 -8.66 13.02 -9 12 C-10.65 12.33 -12.3 12.66 -14 13 C-14.33 12.01 -14.66 11.02 -15 10 C-17.00016466 8.79117904 -17.00016466 8.79117904 -19 8 C-18.21496094 7.67386719 -17.42992187 7.34773438 -16.62109375 7.01171875 C-15.57050781 6.57472656 -14.51992187 6.13773438 -13.4375 5.6875 C-12.34566406 5.23503906 -11.25382813 4.78257813 -10.12890625 4.31640625 C-7.68971953 3.29018163 -5.28164671 2.22357546 -2.875 1.125 C-1.92625 0.75375 -0.9775 0.3825 0 0 Z " fill="#DC3E30" transform="translate(222,26)"/>
<path d="M0 0 C3.29615506 0.5683026 4.89236572 1.39461916 7 4 C7.60009766 6.22070312 7.60009766 6.22070312 7.9140625 8.78125 C8.03523438 9.70550781 8.15640625 10.62976563 8.28125 11.58203125 C8.45140625 13.02642578 8.45140625 13.02642578 8.625 14.5 C8.86491237 16.40653767 9.10700578 18.3128025 9.3515625 20.21875 C9.45291504 21.06373047 9.55426758 21.90871094 9.65869141 22.77929688 C9.96164808 25.16568265 9.96164808 25.16568265 11 28 C11.06802967 29.72795352 11.08495645 31.45835365 11.0625 33.1875 C11.05347656 34.08855469 11.04445313 34.98960938 11.03515625 35.91796875 C11.02355469 36.60503906 11.01195312 37.29210938 11 38 C10.505 36.515 10.505 36.515 10 35 C9.34 34.67 8.68 34.34 8 34 C8 31.69 8 29.38 8 27 C7.34 26.67 6.68 26.34 6 26 C5.04932701 22.71585695 4.89897803 21.30306592 6 18 C5.34 17.67 4.68 17.34 4 17 C4 14.69 4 12.38 4 10 C3.34 9.67 2.68 9.34 2 9 C2 8.01 2 7.02 2 6 C1.34 5.34 0.68 4.68 0 4 C0 2.68 0 1.36 0 0 Z " fill="#D02715" transform="translate(264,21)"/>
<path d="M0 0 C2.91461599 1.22720673 3.96072328 2.17144656 5.375 5 C5.29696617 8.19938696 4.81245759 9.53129544 2.625 11.875 C0.375 13 0.375 13 -2.1875 12.875 C-4.84124257 11.92237446 -6.04352277 11.33059802 -7.625 9 C-8.125 6.5625 -8.125 6.5625 -7.625 4 C-5.12004674 1.28033646 -3.75882357 0 0 0 Z " fill="#F9FCFD" transform="translate(64.625,30)"/>
<path d="M0 0 C3.93846154 3.32307692 3.93846154 3.32307692 4.25 6.75 C4.1675 7.4925 4.085 8.235 4 9 C4.66 9 5.32 9 6 9 C7.29855607 11.20452542 8.58888195 13.41323296 9.875 15.625 C10.23980469 16.24246094 10.60460937 16.85992187 10.98046875 17.49609375 C13.15900487 21.25901977 14.62043643 24.86130928 16 29 C16.66 29.33 17.32 29.66 18 30 C19.0703125 31.99609375 19.0703125 31.99609375 20.125 34.4375 C20.47820312 35.24058594 20.83140625 36.04367188 21.1953125 36.87109375 C22 39 22 39 22 41 C21.01 41 20.02 41 19 41 C18.67314209 40.37134033 18.34628418 39.74268066 18.00952148 39.0949707 C17.03580892 37.22305238 16.06156027 35.35141285 15.08691406 33.47998047 C13.98489318 31.36369584 12.88398626 29.24683076 11.78417969 27.12939453 C8.28372096 20.40434106 8.28372096 20.40434106 4.64453125 13.75390625 C4.01933594 12.63886719 3.39414063 11.52382813 2.75 10.375 C2.20859375 9.43398438 1.6671875 8.49296875 1.109375 7.5234375 C-0.08956355 4.79627447 -0.23392992 2.9453903 0 0 Z " fill="#711E19" transform="translate(251,29)"/>
<path d="M0 0 C2.3125 0.125 2.3125 0.125 5 1 C6.6875 3.9375 6.6875 3.9375 8 7 C8.66 7.66 9.32 8.32 10 9 C10 10.32 10 11.64 10 13 C11.32 12.67 12.64 12.34 14 12 C13.814375 12.5775 13.62875 13.155 13.4375 13.75 C12.95295981 16.24192097 13.10467265 17.63959152 14 20 C14.66 20.33 15.32 20.66 16 21 C16.625 24.0625 16.625 24.0625 17 27 C16.34 26.67 15.68 26.34 15 26 C15 25.34 15 24.68 15 24 C14.01 24 13.02 24 12 24 C9 18.25 9 18.25 9 16 C8.34 16 7.68 16 7 16 C6.62875 14.7315625 6.62875 14.7315625 6.25 13.4375 C5.28528683 10.78453879 4.34181747 8.71260623 2.9375 6.3125 C1 3 1 3 0 0 Z " fill="#D22713" transform="translate(248,22)"/>
<path d="M0 0 C4.875 1.875 4.875 1.875 6 3 C7.11375 2.79375 8.2275 2.5875 9.375 2.375 C13 2 13 2 14.6875 3.3125 C15.120625 3.869375 15.55375 4.42625 16 5 C18.09989652 6.17574711 18.09989652 6.17574711 20 7 C19.01 7.495 19.01 7.495 18 8 C18 8.66 18 9.32 18 10 C13.38 10 8.76 10 4 10 C0 2.25 0 2.25 0 0 Z " fill="#E73F31" transform="translate(197,60)"/>
<path d="M0 0 C1.89213369 2.38573379 3.02391783 4.07175348 4 7 C3.67 7.66 3.34 8.32 3 9 C-3.27 9 -9.54 9 -16 9 C-16 7.02 -16 5.04 -16 3 C-14.35 2.67 -12.7 2.34 -11 2 C-11 2.99 -11 3.98 -11 5 C-8.760165 5.95020416 -8.760165 5.95020416 -6 6 C-3.20802268 3.70817728 -3.20802268 3.70817728 -1 1 C-0.67 0.67 -0.34 0.34 0 0 Z " fill="#ED4031" transform="translate(247,61)"/>
<path d="M0 0 C0.66 0.66 1.32 1.32 2 2 C2.66 1.34 3.32 0.68 4 0 C4.67047742 4.10355363 5.33572962 8.2079374 6 12.3125 C6.28617187 14.06336914 6.28617187 14.06336914 6.578125 15.84960938 C6.75859375 16.96787109 6.9390625 18.08613281 7.125 19.23828125 C7.29257812 20.26993408 7.46015625 21.30158691 7.6328125 22.36450195 C8 25 8 25 8 28 C6.68 28 5.36 28 4 28 C3.3280098 24.08422732 2.66333258 20.1672478 2 16.25 C1.80921875 15.13882813 1.6184375 14.02765625 1.421875 12.8828125 C1.15117187 11.27792969 1.15117187 11.27792969 0.875 9.640625 C0.70742188 8.65610352 0.53984375 7.67158203 0.3671875 6.65722656 C0 4 0 4 0 0 Z " fill="#C5D6DC" transform="translate(275,42)"/>
<path d="M0 0 C0.59296875 0.20496094 1.1859375 0.40992188 1.796875 0.62109375 C1.03890625 1.04068359 1.03890625 1.04068359 0.265625 1.46875 C-0.70890625 2.07009766 -0.70890625 2.07009766 -1.703125 2.68359375 C-2.3528125 3.06644531 -3.0025 3.44929688 -3.671875 3.84375 C-5.47868218 5.6279685 -5.47868218 5.6279685 -5.703125 8.69140625 C-5.04361709 13.87472621 -3.0655648 17.81867756 -0.703125 22.43359375 C0.14373876 24.1260497 0.98764494 25.81998983 1.828125 27.515625 C2.20517578 28.25659424 2.58222656 28.99756348 2.97070312 29.76098633 C3.796875 31.62109375 3.796875 31.62109375 3.796875 33.62109375 C0.796875 32.62109375 0.796875 32.62109375 -0.36987305 30.79858398 C-1.55940492 28.22511068 -2.73933498 25.64945534 -3.890625 23.05859375 C-4.51420898 21.73504883 -4.51420898 21.73504883 -5.15039062 20.38476562 C-7.63391112 14.86719053 -8.95864186 10.67860063 -8.203125 4.62109375 C-6.36846688 1.63060101 -3.66351729 -0.63007301 0 0 Z " fill="#76251D" transform="translate(197.203125,36.37890625)"/>
<path d="M0 0 C8.3150358 1.91885442 8.3150358 1.91885442 11 6 C11.3618267 11.87809692 10.54851772 16.85000292 9 22.5 C8.80921875 23.22703125 8.6184375 23.9540625 8.421875 24.703125 C7.95662755 26.47106531 7.47956407 28.23588933 7 30 C6.01 30 5.02 30 4 30 C5.692891 20.88720379 5.692891 20.88720379 7.125 16.75 C8.11287171 13.64526034 8.2879701 11.23966367 8 8 C5.59563974 4.39345961 4.05320393 4.14547068 0 3 C0 2.01 0 1.02 0 0 Z " fill="#7A2722" transform="translate(308,40)"/>
<path d="M0 0 C2 2 2 2 2.0625 4.5625 C2.041875 5.366875 2.02125 6.17125 2 7 C2.33 7.33 2.66 7.66 3 8 C3.04092937 10.33297433 3.04241723 12.66705225 3 15 C-1.56351039 14.51963048 -1.56351039 14.51963048 -3.3125 12.4375 C-4.31210998 8.89342826 -4.12259376 5.67781281 -4 2 C-2.68 1.34 -1.36 0.68 0 0 Z " fill="#F54535" transform="translate(292,47)"/>
<path d="M0 0 C2.5 0.25 2.5 0.25 4.5 2.25 C4.75 5.25 4.75 5.25 4.5 8.25 C2.5 10.25 2.5 10.25 0 10.5 C-2.5 10.25 -2.5 10.25 -4.5 8.25 C-4.75 5.25 -4.75 5.25 -4.5 2.25 C-2.5 0.25 -2.5 0.25 0 0 Z " fill="#F5F8FB" transform="translate(88.5,116.75)"/>
<path d="M0 0 C1 1 1 1 1.1875 3.9375 C1 7 1 7 -1 9 C-3.5 9.3125 -3.5 9.3125 -6 9 C-8 6 -8 6 -7.75 2.875 C-7.37875 1.451875 -7.37875 1.451875 -7 0 C-4.31633121 -1.3418344 -2.84719317 -0.73004953 0 0 Z " fill="#EEF4F8" transform="translate(78,113)"/>
<path d="M0 0 C0.38281159 5.23175837 -0.78145293 8.37802694 -3 13 C-4.32 13 -5.64 13 -7 13 C-7 9.04 -7 5.08 -7 1 C-3 0 -3 0 0 0 Z " fill="#D73D30" transform="translate(317,48)"/>
<path d="M0 0 C0.94875 0.04125 1.8975 0.0825 2.875 0.125 C4.24123674 2.85747348 4.003426 5.10698902 3.875 8.125 C2.875 9.125 2.875 9.125 -0.6875 9.1875 C-1.821875 9.166875 -2.95625 9.14625 -4.125 9.125 C-4.75 5.75 -4.75 5.75 -5.125 2.125 C-3.125 0.125 -3.125 0.125 0 0 Z " fill="#F2F8FB" transform="translate(58.125,123.875)"/>
<path d="M0 0 C2 2 2 2 2.25 4.5 C2 7 2 7 0 9 C-3.125 9.125 -3.125 9.125 -6 9 C-7.35439668 6.29120665 -7.06501451 3.99066732 -7 1 C-4.48718205 -0.25640898 -2.78302919 -0.20872719 0 0 Z " fill="#F8FCFC" transform="translate(44,111)"/>
<path d="M0 0 C14.78132118 1.92710706 14.78132118 1.92710706 21 4 C21 5.65 21 7.3 21 9 C20.113125 8.54625 19.22625 8.0925 18.3125 7.625 C12.83360083 5.23647164 6.8807111 4.75166984 1 4 C0.67 2.68 0.34 1.36 0 0 Z " fill="#E6DFDF" transform="translate(278,20)"/>
<path d="M0 0 C2.5 0.25 2.5 0.25 4.5 2.25 C4.75 4.75 4.75 4.75 4.5 7.25 C2.5 9.25 2.5 9.25 0 9.5 C-2.5 9.25 -2.5 9.25 -4.5 7.25 C-4.75 4.75 -4.75 4.75 -4.5 2.25 C-2.5 0.25 -2.5 0.25 0 0 Z " fill="#F2F7FB" transform="translate(104.5,131.75)"/>
<path d="M0 0 C3 0.125 3 0.125 4 1.125 C4.1875 4.0625 4.1875 4.0625 4 7.125 C2 9.125 2 9.125 -0.5 9.4375 C-1.7375 9.2828125 -1.7375 9.2828125 -3 9.125 C-5 6.125 -5 6.125 -4.6875 3.5 C-3.68897505 0.05055016 -3.71397355 0.1547489 0 0 Z " fill="#F0F9FC" transform="translate(32,131.875)"/>
<path d="M0 0 C4.55555556 0.55555556 4.55555556 0.55555556 6 2 C6.1875 4.9375 6.1875 4.9375 6 8 C5.34 8.66 4.68 9.32 4 10 C-0.55555556 9.44444444 -0.55555556 9.44444444 -2 8 C-2.1875 5.0625 -2.1875 5.0625 -2 2 C-1.34 1.34 -0.68 0.68 0 0 Z " fill="#F7FAFA" transform="translate(75,133)"/>
<path d="M0 0 C0.99 0 1.98 0 3 0 C4.17112946 2.62309099 5.33705964 5.24828142 6.5 7.875 C6.83386719 8.62136719 7.16773438 9.36773437 7.51171875 10.13671875 C7.98544922 11.20986328 7.98544922 11.20986328 8.46875 12.3046875 C8.76201172 12.96452637 9.05527344 13.62436523 9.35742188 14.30419922 C10 16 10 16 10 18 C8.68 18 7.36 18 6 18 C4.99095625 15.7536764 3.9926398 13.50356063 3 11.25 C2.71382812 10.61578125 2.42765625 9.9815625 2.1328125 9.328125 C0.63993298 5.91582896 0 3.79218083 0 0 Z " fill="#7B3C39" transform="translate(185,52)"/>
<path d="M0 0 C7.26 0 14.52 0 22 0 C22.33 0.99 22.66 1.98 23 3 C15.74 3 8.48 3 1 3 C0.67 2.01 0.34 1.02 0 0 Z " fill="#E7D7D6" transform="translate(245,16)"/>
<path d="M0 0 C0.99 0.495 0.99 0.495 2 1 C2.48657227 3.08544922 2.48657227 3.08544922 2.81640625 5.8046875 C2.94080078 6.78050781 3.06519531 7.75632812 3.19335938 8.76171875 C3.31517578 9.78910156 3.43699219 10.81648438 3.5625 11.875 C3.81130843 13.8935381 4.0625066 15.91178347 4.31640625 17.9296875 C4.47798218 19.27909424 4.47798218 19.27909424 4.64282227 20.65576172 C4.95440864 23.14609883 4.95440864 23.14609883 6 26 C5.67 26.99 5.34 27.98 5 29 C4.34 29 3.68 29 3 29 C0.9289695 19.187739 -0.16593487 10.02984126 0 0 Z " fill="#6C1915" transform="translate(280,41)"/>
<path d="M0 0 C1.65 0 3.3 0 5 0 C6.80230168 3.82989106 7.19622241 6.78121808 7 11 C5.35 11.33 3.7 11.66 2 12 C1.1558062 8.02022924 0.55312735 4.02992782 0 0 Z " fill="#E94133" transform="translate(285,27)"/>
<path d="M0 0 C2.4375 0.375 2.4375 0.375 5 1 C5.33 1.66 5.66 2.32 6 3 C7.89533342 3.46523063 7.89533342 3.46523063 10.0625 3.625 C11.361875 3.74875 12.66125 3.8725 14 4 C12 7 12 7 9 8 C9.495 9.0828125 9.495 9.0828125 10 10.1875 C11.00603529 13.01697427 11.16977402 15.02895466 11 18 C8.30772925 14.56422425 6.30823499 10.97366459 4.28125 7.12109375 C3.0907769 4.9579367 3.0907769 4.9579367 1.34375 3.34765625 C0 2 0 2 0 0 Z " fill="#772E2A" transform="translate(240,15)"/>
<path d="M0 0 C0.66 0 1.32 0 2 0 C1.85991329 3.5210863 1.71189018 7.04179712 1.5625 10.5625 C1.52318359 11.55314453 1.48386719 12.54378906 1.44335938 13.56445312 C1.21827654 18.77598637 0.85894761 23.85353238 0 29 C-0.66 29 -1.32 29 -2 29 C-1.85891477 25.85393539 -1.71123864 22.70821132 -1.5625 19.5625 C-1.52318359 18.68400391 -1.48386719 17.80550781 -1.44335938 16.90039062 C-1.17137332 11.23052738 -0.68222355 5.63551047 0 0 Z " fill="#70221E" transform="translate(297,41)"/>
<path d="M0 0 C0.66 0.33 1.32 0.66 2 1 C1.175 1.350625 0.35 1.70125 -0.5 2.0625 C-3.38056132 3.82467938 -3.38056132 3.82467938 -3.4375 7.375 C-3.03789996 10.68597178 -2.30756758 12.97624998 -1 16 C-1 17.32 -1 18.64 -1 20 C-1.66 20 -2.32 20 -3 20 C-5.90698547 15.00361873 -8.02826094 10.94106323 -7 5 C-4.7705435 2.7705435 -2.80147786 1.40073893 0 0 Z " fill="#EB5C4F" transform="translate(198,37)"/>
<path d="M0 0 C7 8.75 7 8.75 7 13 C5.35 13 3.7 13 2 13 C2 12.01 2 11.02 2 10 C0.02 9.34 -1.96 8.68 -4 8 C-2.66666667 5.33333333 -1.33333333 2.66666667 0 0 Z " fill="#D12613" transform="translate(257,57)"/>
<path d="M0 0 C0.66 0 1.32 0 2 0 C2 0.99 2 1.98 2 3 C2.66 3 3.32 3 4 3 C4.33 6.63 4.66 10.26 5 14 C3.68 14 2.36 14 1 14 C1.061875 13.278125 1.12375 12.55625 1.1875 11.8125 C1.21795269 8.89214403 1.21795269 8.89214403 -0.625 6.4375 C-1.07875 5.633125 -1.5325 4.82875 -2 4 C-1.1875 1.6875 -1.1875 1.6875 0 0 Z " fill="#E33D30" transform="translate(272,56)"/>
<path d="M0 0 C7.8822202 0.51599184 15.34458305 2.0921453 23 4 C15.95916866 6.34694378 9.06917884 6.59085991 2 4 C0.67578125 1.91796875 0.67578125 1.91796875 0 0 Z " fill="#8C504E" transform="translate(279,17)"/>
<path d="M0 0 C0.33 0 0.66 0 1 0 C0.67 6.6 0.34 13.2 0 20 C-0.33 20 -0.66 20 -1 20 C-1.33 18.02 -1.66 16.04 -2 14 C-2.99 13.67 -3.98 13.34 -5 13 C-4.34 12.67 -3.68 12.34 -3 12 C-3 10.35 -3 8.7 -3 7 C-4.32 6.34 -5.64 5.68 -7 5 C-6.030625 4.54625 -5.06125 4.0925 -4.0625 3.625 C-0.92920418 2.34213779 -0.92920418 2.34213779 0 0 Z " fill="#CB2D1D" transform="translate(296,42)"/>
<path d="M0 0 C4.75 0.75 4.75 0.75 7 3 C5.515 5.475 5.515 5.475 4 8 C-0.75 7.25 -0.75 7.25 -3 5 C-2.01 3.35 -1.02 1.7 0 0 Z " fill="#F84737" transform="translate(229,45)"/>
<path d="M0 0 C2.31 0.33 4.62 0.66 7 1 C5.55214724 5.70552147 5.55214724 5.70552147 3.125 7 C0.25529451 7 -0.90463451 5.87086204 -3 4 C-2.01 2.68 -1.02 1.36 0 0 Z " fill="#F94737" transform="translate(220,33)"/>
<path d="M0 0 C2.0625 1.5625 2.0625 1.5625 4 4 C3.75 7.75 3.75 7.75 3 11 C1.35 11 -0.3 11 -2 11 C-1.85957123 9.35369672 -1.71250671 7.70795821 -1.5625 6.0625 C-1.48128906 5.14597656 -1.40007812 4.22945312 -1.31640625 3.28515625 C-1 1 -1 1 0 0 Z " fill="#D12411" transform="translate(305,59)"/>
<path d="M0 0 C1.60746056 0.42523816 3.21089836 0.86570126 4.8125 1.3125 C6.15248047 1.67794922 6.15248047 1.67794922 7.51953125 2.05078125 C10.07486087 3.02864755 11.33709197 3.85092617 13 6 C13 6.66 13 7.32 13 8 C10.02277453 7.29666462 7.14743457 6.41751463 4.25 5.4375 C3.45078125 5.16808594 2.6515625 4.89867187 1.828125 4.62109375 C0.92320312 4.31365234 0.92320312 4.31365234 0 4 C0 2.68 0 1.36 0 0 Z " fill="#EEE9EA" transform="translate(306,36)"/>
<path d="M0 0 C0.33 0 0.66 0 1 0 C1.66 5.94 2.32 11.88 3 18 C1.68 18 0.36 18 -1 18 C-1.33 14.7 -1.66 11.4 -2 8 C-1.67 8 -1.34 8 -1 8 C-0.67 5.36 -0.34 2.72 0 0 Z " fill="#C0C9CF" transform="translate(280,52)"/>
<path d="M0 0 C-0.75 2.4375 -0.75 2.4375 -2 5 C-4 5.9375 -4 5.9375 -6 6 C-6.66 5.34 -7.32 4.68 -8 4 C-8 2.68 -8 1.36 -8 0 C-5.13822943 -1.43088528 -3.06624227 -0.59991697 0 0 Z " fill="#E8250D" transform="translate(248,43)"/>
<path d="M0 0 C1.67542976 0.28604898 3.34385343 0.61781233 5 1 C5.33 1.99 5.66 2.98 6 4 C5.01 5.485 5.01 5.485 4 7 C1.03 6.505 1.03 6.505 -2 6 C-1.125 1.125 -1.125 1.125 0 0 Z " fill="#E6250C" transform="translate(251,55)"/>
<path d="M0 0 C1.65 0.33 3.3 0.66 5 1 C4.25 3.9375 4.25 3.9375 3 7 C1 7.9375 1 7.9375 -1 8 C-1.66 7.67 -2.32 7.34 -3 7 C-1.125 2.25 -1.125 2.25 0 0 Z " fill="#F94637" transform="translate(205,44)"/>
<path d="M0 0 C1.11761719 -0.01417969 2.23523438 -0.02835938 3.38671875 -0.04296875 C6.3125 0.1875 6.3125 0.1875 9.3125 2.1875 C8.9825 3.1775 8.6525 4.1675 8.3125 5.1875 C7.6525 4.5275 6.9925 3.8675 6.3125 3.1875 C3.38666018 2.98161762 3.38666018 2.98161762 0.0625 3.125 C-4.34968408 3.24191271 -8.35076502 3.03513456 -12.6875 2.1875 C-12.6875 1.8575 -12.6875 1.5275 -12.6875 1.1875 C-8.41690537 0.3798989 -4.34530161 0.02523404 0 0 Z " fill="#6F1914" transform="translate(260.6875,18.8125)"/>
<path d="M0 0 C2.31 0.33 4.62 0.66 7 1 C6.01 2.98 5.02 4.96 4 7 C2.02 6.34 0.04 5.68 -2 5 C-1.34 3.35 -0.68 1.7 0 0 Z " fill="#F84739" transform="translate(202,35)"/>
<path d="M0 0 C1.65 0.33 3.3 0.66 5 1 C4.1875 3.9375 4.1875 3.9375 3 7 C0 8 0 8 -3 7 C-1.125 2.25 -1.125 2.25 0 0 Z " fill="#F8493A" transform="translate(200,52)"/>
<path d="M0 0 C0.33 0.66 0.66 1.32 1 2 C0.67 2.66 0.34 3.32 0 4 C1.3921875 3.87625 1.3921875 3.87625 2.8125 3.75 C6 4 6 4 7.875 6 C8.431875 6.99 8.431875 6.99 9 8 C7.35 7.67 5.7 7.34 4 7 C3.67 8.65 3.34 10.3 3 12 C2.34 12 1.68 12 1 12 C1.66 10.02 2.32 8.04 3 6 C1.35 5.67 -0.3 5.34 -2 5 C-2.33 5.99 -2.66 6.98 -3 8 C-3.33 7.34 -3.66 6.68 -4 6 C-3.67 5.01 -3.34 4.02 -3 3 C-2.34 3 -1.68 3 -1 3 C-0.67 2.01 -0.34 1.02 0 0 Z " fill="#D43829" transform="translate(207,39)"/>
<path d="M0 0 C0.99 0.33 1.98 0.66 3 1 C3 2.98 3 4.96 3 7 C1.35 7.66 -0.3 8.32 -2 9 C-2.33 6.69 -2.66 4.38 -3 2 C-2.01 1.34 -1.02 0.68 0 0 Z " fill="#F14535" transform="translate(290,39)"/>
<path d="M0 0 C-5.75 3 -5.75 3 -8 3 C-8 3.99 -8 4.98 -8 6 C-9.32 6.33 -10.64 6.66 -12 7 C-12 6.34 -12 5.68 -12 5 C-12.5775 5.350625 -13.155 5.70125 -13.75 6.0625 C-16.39786506 7.16577711 -17.33185326 6.80156509 -20 6 C-17.04657157 4.80003066 -14.08658106 3.61718896 -11.125 2.4375 C-10.28324219 2.09525391 -9.44148437 1.75300781 -8.57421875 1.40039062 C-7.76855469 1.08134766 -6.96289062 0.76230469 -6.1328125 0.43359375 C-5.38918457 0.13509521 -4.64555664 -0.16340332 -3.87939453 -0.47094727 C-2 -1 -2 -1 0 0 Z " fill="#96615E" transform="translate(231,15)"/>
<path d="M0 0 C1.65 0.33 3.3 0.66 5 1 C5 5 5 5 4 7 C2.02 6.34 0.04 5.68 -2 5 C-2 4.01 -2 3.02 -2 2 C-1.34 2 -0.68 2 0 2 C0 1.34 0 0.68 0 0 Z " fill="#E7250C" transform="translate(238,32)"/>
<path d="M0 0 C-0.66 2.64 -1.32 5.28 -2 8 C-3.32 8 -4.64 8 -6 8 C-6 5.69 -6 3.38 -6 1 C-3 0 -3 0 0 0 Z " fill="#EA4335" transform="translate(314,62)"/>
<path d="M0 0 C0.66 0 1.32 0 2 0 C2.33 2.31 2.66 4.62 3 7 C1.02 7.99 1.02 7.99 -1 9 C-3 6 -3 6 -2.75 3.9375 C-2 2 -2 2 0 0 Z " fill="#F24232" transform="translate(270,48)"/>
<path d="M0 0 C0.33 2.31 0.66 4.62 1 7 C-3 7 -3 7 -5 6 C-5 4.35 -5 2.7 -5 1 C-2 0 -2 0 0 0 Z " fill="#E6260F" transform="translate(285,27)"/>
<path d="M0 0 C0 2.31 0 4.62 0 7 C-1.98 7 -3.96 7 -6 7 C-6 5.35 -6 3.7 -6 2 C-1.125 0 -1.125 0 0 0 Z " fill="#F54638" transform="translate(295,63)"/>
<path d="M0 0 C1.875 0.9375 1.875 0.9375 3.125 3.5 C3.3725 4.304375 3.62 5.10875 3.875 5.9375 C2.76125 5.751875 1.6475 5.56625 0.5 5.375 C-2.95068861 4.62069343 -2.95068861 4.62069343 -5.125 5.9375 C-5.455 4.6175 -5.785 3.2975 -6.125 1.9375 C-3.94811446 0.61581949 -2.57282067 -0.0756712 0 0 Z " fill="#E13E2D" transform="translate(243.125,54.0625)"/>
<path d="M0 0 C0.33 0 0.66 0 1 0 C1.33 3.63 1.66 7.26 2 11 C0.68 11 -0.64 11 -2 11 C-2.28571429 3.57142857 -2.28571429 3.57142857 0 0 Z " fill="#C1CDD3" transform="translate(299,59)"/>
<path d="M0 0 C2.9375 0.375 2.9375 0.375 6 1 C6.33 1.66 6.66 2.32 7 3 C6.67 3.66 6.34 4.32 6 5 C3.69 5 1.38 5 -1 5 C-0.67 3.35 -0.34 1.7 0 0 Z " fill="#E7250D" transform="translate(253,65)"/>
<path d="M0 0 C2.375 0.5 2.375 0.5 5 2 C6.08241903 4.66525288 6.49272107 7.1407915 7 10 C6.01 10 5.02 10 4 10 C3.32845067 8.71086513 2.66291141 7.41859796 2 6.125 C1.62875 5.40570313 1.2575 4.68640625 0.875 3.9453125 C0 2 0 2 0 0 Z " fill="#EE5C4F" transform="translate(197,60)"/>
<path d="M0 0 C0.33 1.65 0.66 3.3 1 5 C-3.75 6.125 -3.75 6.125 -6 5 C-5.625 3.0625 -5.625 3.0625 -5 1 C-3 0 -3 0 0 0 Z " fill="#E32710" transform="translate(252,46)"/>
<path d="M0 0 C2.64 0 5.28 0 8 0 C8.66 1.65 9.32 3.3 10 5 C8.88625 4.9071875 8.88625 4.9071875 7.75 4.8125 C4.54616994 5.03094296 3.35968744 5.90250005 1 8 C1.66 6.35 2.32 4.7 3 3 C2.01 2.01 1.02 1.02 0 0 Z " fill="#DB3A2C" transform="translate(232,45)"/>
<path d="M0 0 C0.66 0.33 1.32 0.66 2 1 C1.67 1.99 1.34 2.98 1 4 C1.99 4.66 2.98 5.32 4 6 C-1.75 10 -1.75 10 -4 10 C-3.38461538 3.47692308 -3.38461538 3.47692308 -1.4375 1.0625 C-0.7259375 0.5365625 -0.7259375 0.5365625 0 0 Z " fill="#DF3F31" transform="translate(200,36)"/>
<path d="M0 0 C0.99 0 1.98 0 3 0 C3.33 1.98 3.66 3.96 4 6 C2.35 6.66 0.7 7.32 -1 8 C-1.04241723 5.66705225 -1.04092937 3.33297433 -1 1 C-0.67 0.67 -0.34 0.34 0 0 Z " fill="#E92711" transform="translate(284,42)"/>
<path d="M0 0 C0.66 0 1.32 0 2 0 C2 0.99 2 1.98 2 3 C3.32 3 4.64 3 6 3 C6 5.64 6 8.28 6 11 C4.02 11.99 4.02 11.99 2 13 C2 11.68 2 10.36 2 9 C2.66 9 3.32 9 4 9 C3.67 7.35 3.34 5.7 3 4 C2.34 4 1.68 4 1 4 C0.67 2.68 0.34 1.36 0 0 Z " fill="#D32D1B" transform="translate(230,27)"/>
<path d="M0 0 C1.67542976 0.28604898 3.34385343 0.61781233 5 1 C4.25 5.75 4.25 5.75 2 8 C0.01178687 8.39764263 -1.98944339 8.73775349 -4 9 C-4.33 7.68 -4.66 6.36 -5 5 C-2.03 5.495 -2.03 5.495 1 6 C1.33 5.01 1.66 4.02 2 3 C1.01 2.34 0.02 1.68 -1 1 C-0.67 0.67 -0.34 0.34 0 0 Z " fill="#D73B2D" transform="translate(262,26)"/>
<path d="M0 0 C-2.98440561 1.54078615 -6.01007758 2.86973276 -9.125 4.125 C-9.99382812 4.47820313 -10.86265625 4.83140625 -11.7578125 5.1953125 C-14 6 -14 6 -16 6 C-16 5.34 -16 4.68 -16 4 C-10.4174808 0.67424388 -6.50313209 -0.46450943 0 0 Z " fill="#671C18" transform="translate(239,14)"/>
<path d="M0 0 C0 0.99 0 1.98 0 3 C-1.4317616 3.69937202 -2.87067032 4.38412718 -4.3125 5.0625 C-5.51326172 5.63677734 -5.51326172 5.63677734 -6.73828125 6.22265625 C-9 7 -9 7 -12 6 C-11.34 6 -10.68 6 -10 6 C-10 5.01 -10 4.02 -10 3 C-5.05 1.515 -5.05 1.515 0 0 Z " fill="#74312F" transform="translate(199,28)"/>
<path d="M0 0 C0.99 0 1.98 0 3 0 C3.33 1.65 3.66 3.3 4 5 C1.36 5.66 -1.28 6.32 -4 7 C-3.67 5.68 -3.34 4.36 -3 3 C-2.34 3 -1.68 3 -1 3 C-0.67 2.01 -0.34 1.02 0 0 Z " fill="#E13E30" transform="translate(230,31)"/>
<path d="M0 0 C0.99 0 1.98 0 3 0 C3.69685498 1.6210103 4.38222861 3.24696066 5.0625 4.875 C5.63677734 6.23238281 5.63677734 6.23238281 6.22265625 7.6171875 C7 10 7 10 6 12 C3.42852716 10.71426358 3.36852166 9.78645458 2.4375 7.125 C2.18871094 6.42632812 1.93992188 5.72765625 1.68359375 5.0078125 C1.11599908 3.34070587 0.55690288 1.67070865 0 0 Z " fill="#7E231A" transform="translate(240,25)"/>
<path d="M0 0 C2.09782787 2.09782787 2.6509396 3.3799207 3.625 6.125 C3.88539063 6.84945312 4.14578125 7.57390625 4.4140625 8.3203125 C4.70410156 9.15175781 4.70410156 9.15175781 5 10 C3.68 10 2.36 10 1 10 C-0.80411967 7.24075815 -1.0127245 6.11027897 -0.625 2.75 C-0.41875 1.8425 -0.2125 0.935 0 0 Z " fill="#E9DBDA" transform="translate(194,60)"/>
<path d="M0 0 C2.86724686 0.57344937 3.8614515 0.8614515 6 3 C5.75 5.0625 5.75 5.0625 5 7 C4.01 7.495 4.01 7.495 3 8 C0.37613513 4.93882432 0 4.26826873 0 0 Z " fill="#D72511" transform="translate(264,21)"/>
<path d="M0 0 C0.66 0 1.32 0 2 0 C2.33 2.31 2.66 4.62 3 7 C2.01 7.33 1.02 7.66 0 8 C-0.66 6.02 -1.32 4.04 -2 2 C-1.34 1.34 -0.68 0.68 0 0 Z " fill="#F34435" transform="translate(272,56)"/>
<path d="M0 0 C4.08718695 -0.24042276 7.17679443 0.57741188 11 2 C11 2.33 11 2.66 11 3 C8.69 3 6.38 3 4 3 C3.67 3.99 3.34 4.98 3 6 C0 2.25 0 2.25 0 0 Z " fill="#681E1B" transform="translate(274,17)"/>
<path d="M0 0 C0.90105469 0.01804687 1.80210937 0.03609375 2.73046875 0.0546875 C3.41753906 0.07789063 4.10460937 0.10109375 4.8125 0.125 C5.1425 1.115 5.4725 2.105 5.8125 3.125 C-1.1175 2.63 -1.1175 2.63 -8.1875 2.125 C-4.87379 -0.08414 -3.8428979 -0.09981553 0 0 Z " fill="#FBF7F8" transform="translate(262.1875,15.875)"/>
<path d="M0 0 C2.475 0.495 2.475 0.495 5 1 C4.67 2.98 4.34 4.96 4 7 C3.34 7 2.68 7 2 7 C0.5393715 4.35261084 0 3.10551666 0 0 Z " fill="#E7250E" transform="translate(244,52)"/>
<path d="M0 0 C0.99 0 1.98 0 3 0 C3 3.63 3 7.26 3 11 C0.2441427 6.86621405 -0.10756445 4.94796454 0 0 Z " fill="#CDE9F0" transform="translate(275,36)"/>
<path d="M0 0 C0.598125 0.20625 1.19625 0.4125 1.8125 0.625 C1.1525 1.945 0.4925 3.265 -0.1875 4.625 C-1.8375 4.295 -3.4875 3.965 -5.1875 3.625 C-5.1875 2.965 -5.1875 2.305 -5.1875 1.625 C-2.1875 -0.375 -2.1875 -0.375 0 0 Z " fill="#F94736" transform="translate(263.1875,28.375)"/>
<path d="M0 0 C0.99 0 1.98 0 3 0 C3.66 2.31 4.32 4.62 5 7 C3.68 7 2.36 7 1 7 C0.67 4.69 0.34 2.38 0 0 Z " fill="#76312E" transform="translate(190,63)"/>
<path d="M0 0 C1.65 0.33 3.3 0.66 5 1 C4.01 2.98 3.02 4.96 2 7 C0.4375 5.1875 0.4375 5.1875 -1 3 C-0.67 2.01 -0.34 1.02 0 0 Z " fill="#F94738" transform="translate(203,63)"/>
<path d="M0 0 C2.64 0.33 5.28 0.66 8 1 C6.02 1.99 6.02 1.99 4 3 C4 3.66 4 4.32 4 5 C3.34 5 2.68 5 2 5 C1.67 6.32 1.34 7.64 1 9 C0.67 6.03 0.34 3.06 0 0 Z " fill="#BF2616" transform="translate(280,33)"/>
<path d="M0 0 C3.465 1.485 3.465 1.485 7 3 C5.75 4.5 5.75 4.5 4 6 C2.68 6 1.36 6 0 6 C0 4.02 0 2.04 0 0 Z " fill="#DC3A2B" transform="translate(288,59)"/>
<path d="M0 0 C1.79240663 0.11389875 3.58394835 0.24147687 5.375 0.375 C6.87160156 0.47941406 6.87160156 0.47941406 8.3984375 0.5859375 C11 1 11 1 13 3 C11.63875 2.9690625 11.63875 2.9690625 10.25 2.9375 C7.57327412 2.9889755 5.53011948 3.2215017 3 4 C2.67 3.01 2.34 2.02 2 1 C1.34 0.67 0.68 0.34 0 0 Z " fill="#905C59" transform="translate(289,19)"/>
<path d="M0 0 C2.15377564 2.62198774 3.40072174 4.64404172 4 8 C2.68 7.67 1.36 7.34 0 7 C-1.125 2.25 -1.125 2.25 0 0 Z " fill="#C5D2D8" transform="translate(266,62)"/>
<path d="M0 0 C0.33 0.99 0.66 1.98 1 3 C3.00016466 4.20882096 3.00016466 4.20882096 5 5 C2.69 4.67 0.38 4.34 -2 4 C-2.33 4.99 -2.66 5.98 -3 7 C-4 5 -4 5 -4 1 C-2.68 0.67 -1.36 0.34 0 0 Z " fill="#D1372A" transform="translate(235,63)"/>
<path d="M0 0 C2 2 2 2 2.125 5.625 C2.08375 6.73875 2.0425 7.8525 2 9 C1.34 9 0.68 9 0 9 C0 7.68 0 6.36 0 5 C-1.32 5.33 -2.64 5.66 -4 6 C-3.525625 5.566875 -3.05125 5.13375 -2.5625 4.6875 C-0.76313043 2.97690387 -0.76313043 2.97690387 0 0 Z " fill="#911C13" transform="translate(297,32)"/>
<path d="M0 0 C1 3 1 3 1 5 C-0.65 5.33 -2.3 5.66 -4 6 C-3.67 4.35 -3.34 2.7 -3 1 C-2.01 0.67 -1.02 0.34 0 0 Z " fill="#F34637" transform="translate(291,33)"/>
<path d="M0 0 C0.33 0.99 0.66 1.98 1 3 C2.32 3 3.64 3 5 3 C4.67 4.65 4.34 6.3 4 8 C3.34 8 2.68 8 2 8 C2 6.68 2 5.36 2 4 C0.68 4 -0.64 4 -2 4 C-1.34 2.68 -0.68 1.36 0 0 Z " fill="#C22311" transform="translate(234,26)"/>
<path d="M0 0 C0.33 0.99 0.66 1.98 1 3 C1.66 3.66 2.32 4.32 3 5 C1.68 5 0.36 5 -1 5 C-1.33 5.99 -1.66 6.98 -2 8 C-2.66 8 -3.32 8 -4 8 C-4 6.02 -4 4.04 -4 2 C-2.68 1.34 -1.36 0.68 0 0 Z " fill="#D23829" transform="translate(228,59)"/>
<path d="M0 0 C-0.6875 2.4375 -0.6875 2.4375 -2 5 C-4.625 5.8125 -4.625 5.8125 -7 6 C-5.52522876 2.59668175 -4.14385429 0 0 0 Z " fill="#956361" transform="translate(189,32)"/>
<path d="M0 0 C2.475 0.495 2.475 0.495 5 1 C5.33 1.99 5.66 2.98 6 4 C4.02 4.33 2.04 4.66 0 5 C0 3.35 0 1.7 0 0 Z " fill="#CD2511" transform="translate(291,28)"/>
<path d="M0 0 C0.66 0 1.32 0 2 0 C3.5625 2.8125 3.5625 2.8125 5 6 C4.67 6.99 4.34 7.98 4 9 C1.49701566 6.06171403 0.53069061 3.82097239 0 0 Z " fill="#7C2C24" transform="translate(190,49)"/>
<path d="M0 0 C1.65 0 3.3 0 5 0 C5 1.32 5 2.64 5 4 C3.35 4 1.7 4 0 4 C0 2.68 0 1.36 0 0 Z " fill="#E5260F" transform="translate(305,50)"/>
<path d="M0 0 C3.93846154 3.32307692 3.93846154 3.32307692 4.25 6.75 C4.1675 7.4925 4.085 8.235 4 9 C3.34 9 2.68 9 2 9 C0.14223235 5.86501708 -0.20140476 3.62528568 0 0 Z " fill="#751913" transform="translate(251,29)"/>
<path d="M0 0 C2.31 0 4.62 0 7 0 C7.66 1.32 8.32 2.64 9 4 C8.05125 3.814375 7.1025 3.62875 6.125 3.4375 C3.10131207 2.71313368 3.10131207 2.71313368 1 4 C0.67 2.68 0.34 1.36 0 0 Z " fill="#DE4133" transform="translate(252,21)"/>
<path d="M0 0 C2.31 0.33 4.62 0.66 7 1 C7 1.66 7 2.32 7 3 C4.36 3 1.72 3 -1 3 C-0.67 2.01 -0.34 1.02 0 0 Z " fill="#F84636" transform="translate(233,67)"/>
<path d="M0 0 C0.99 0.33 1.98 0.66 3 1 C3.33 2.65 3.66 4.3 4 6 C2.68 6 1.36 6 0 6 C0 4.02 0 2.04 0 0 Z " fill="#F84636" transform="translate(310,55)"/>
<path d="M0 0 C0.33 0 0.66 0 1 0 C1.33 3.63 1.66 7.26 2 11 C-0.475 10.01 -0.475 10.01 -3 9 C-2.67 8.34 -2.34 7.68 -2 7 C-1.34 7 -0.68 7 0 7 C0 4.69 0 2.38 0 0 Z " fill="#BE2516" transform="translate(271,30)"/>
<path d="M0 0 C1.09658936 3.28976808 0.79953138 4.71303767 0 8 C-0.99 8 -1.98 8 -3 8 C-2.67 6.02 -2.34 4.04 -2 2 C-1.34 2 -0.68 2 0 2 C0 1.34 0 0.68 0 0 Z " fill="#6E2B28" transform="translate(321,62)"/>
<path d="M0 0 C0.33 0 0.66 0 1 0 C1 1.98 1 3.96 1 6 C-0.32 6 -1.64 6 -3 6 C-2.42655063 3.13275314 -2.1385485 2.1385485 0 0 Z " fill="#EA240C" transform="translate(307,64)"/>
<path d="M0 0 C0.99 0 1.98 0 3 0 C3 1.98 3 3.96 3 6 C2.01 6 1.02 6 0 6 C0 4.02 0 2.04 0 0 Z " fill="#E7250F" transform="translate(285,59)"/>
<path d="M0 0 C0.66 0 1.32 0 2 0 C2.33 2.31 2.66 4.62 3 7 C2.34 7 1.68 7 1 7 C0.34 5.02 -0.32 3.04 -1 1 C-0.67 0.67 -0.34 0.34 0 0 Z " fill="#F76354" transform="translate(194,50)"/>
<path d="M0 0 C0 1.32 0 2.64 0 4 C-1.32 4.33 -2.64 4.66 -4 5 C-4.33 3.68 -4.66 2.36 -5 1 C-2 0 -2 0 0 0 Z " fill="#F54739" transform="translate(316,48)"/>
<path d="M0 0 C2.97 0.33 5.94 0.66 9 1 C9 1.99 9 2.98 9 4 C6.03 3.01 3.06 2.02 0 1 C0 0.67 0 0.34 0 0 Z " fill="#68201F" transform="translate(293,21)"/>
<path d="M0 0 C0.99 0.33 1.98 0.66 3 1 C4.1875 3.5625 4.1875 3.5625 5 6 C3.68 5.67 2.36 5.34 1 5 C0.67 3.35 0.34 1.7 0 0 Z " fill="#D2EFF4" transform="translate(54,94)"/>
<path d="M0 0 C3 3.75 3 3.75 3 6 C1.35 6 -0.3 6 -2 6 C-1.34 4.02 -0.68 2.04 0 0 Z " fill="#C52310" transform="translate(261,64)"/>
<path d="M0 0 C2.475 0.99 2.475 0.99 5 2 C4.67 2.99 4.34 3.98 4 5 C2.68 4.67 1.36 4.34 0 4 C0 2.68 0 1.36 0 0 Z " fill="#C5D0D6" transform="translate(306,36)"/>
<path d="M0 0 C-0.3125 1.9375 -0.3125 1.9375 -1 4 C-1.99 4.33 -2.98 4.66 -4 5 C-4.33 3.68 -4.66 2.36 -5 1 C-3 0 -3 0 0 0 Z " fill="#E62711" transform="translate(297,32)"/>
<path d="M0 0 C-0.33 1.32 -0.66 2.64 -1 4 C-1.66 3.67 -2.32 3.34 -3 3 C-5.00800456 3.28112064 -7.01014051 3.61067967 -9 4 C-6.43425105 1.43425105 -3.68548192 0 0 0 Z " fill="#925F5D" transform="translate(202,26)"/>
<path d="M0 0 C0.66 0 1.32 0 2 0 C2 1.65 2 3.3 2 5 C0.68 5 -0.64 5 -2 5 C-1.125 1.125 -1.125 1.125 0 0 Z " fill="#E4270F" transform="translate(237,24)"/>
</svg>
